<svg width="343" height="136" viewBox="0 0 343 136" fill="none" xmlns="http://www.w3.org/2000/svg">
<path d="M46.3339 106.49C49.3232 106.985 52.3851 107.264 55.5136 107.347C55.9304 107.359 56.2596 107.706 56.2485 108.123C56.2372 108.54 55.8893 108.869 55.4723 108.858C52.2803 108.773 49.1502 108.488 46.0875 107.98C45.6758 107.912 45.3966 107.523 45.4648 107.111C45.5331 106.7 45.9224 106.422 46.3339 106.49ZM73.9261 105.847C74.3371 105.774 74.7291 106.049 74.8012 106.46C74.873 106.871 74.5982 107.262 74.1873 107.334C71.0363 107.887 67.9303 108.302 64.8733 108.563C64.4578 108.599 64.0916 108.291 64.0559 107.875C64.0204 107.46 64.3292 107.094 64.745 107.058C67.7531 106.801 70.8147 106.392 73.9261 105.847ZM28.3877 101.033C28.5977 100.673 29.0601 100.55 29.4206 100.76C30.59 101.441 31.8219 102.066 33.1155 102.628C34.5264 103.242 35.9576 103.792 37.408 104.279C37.803 104.413 38.0158 104.84 37.8832 105.236C37.7501 105.631 37.321 105.844 36.9255 105.711C35.4349 105.209 33.963 104.645 32.512 104.014C31.1655 103.428 29.8817 102.777 28.6607 102.066C28.3002 101.856 28.1777 101.394 28.3877 101.033ZM91.9461 101.429C92.3451 101.306 92.7684 101.531 92.8905 101.93C93.0124 102.329 92.7875 102.751 92.3888 102.873C89.3468 103.804 86.3366 104.645 83.3626 105.382C82.9577 105.482 82.548 105.235 82.4477 104.83C82.3477 104.425 82.5947 104.015 82.9996 103.915C85.9444 103.185 88.9275 102.352 91.9461 101.429ZM109.492 95.2694C109.881 95.1179 110.319 95.3104 110.471 95.6988C110.622 96.0876 110.43 96.5256 110.041 96.6772C107.096 97.8259 104.174 98.9166 101.278 99.9382C100.885 100.077 100.453 99.8708 100.314 99.4779C100.175 99.0844 100.381 98.6516 100.775 98.5128C103.653 97.4973 106.56 96.413 109.492 95.2694ZM16.8131 88.9893C17.1728 88.7781 17.6362 88.8996 17.8475 89.2593C19.2387 91.6278 20.9182 93.8082 22.8837 95.7593C23.1797 96.0533 23.1819 96.5316 22.8881 96.8277C22.5944 97.1236 22.116 97.1254 21.8198 96.8321C19.7595 94.7868 18.0001 92.5018 16.5445 90.0237C16.3333 89.6639 16.4533 89.2006 16.8131 88.9893ZM122.408 89.9514C122.792 89.7862 123.236 89.9624 123.401 90.3454C123.567 90.7285 123.389 91.1733 123.006 91.3384C121.567 91.9586 120.134 92.5692 118.705 93.1682C118.32 93.3295 117.876 93.1486 117.715 92.7639C117.553 92.3791 117.735 91.9365 118.12 91.7752C119.545 91.1783 120.974 90.5697 122.408 89.9514ZM12.1959 72.8802C12.6114 72.8438 12.9782 73.151 13.0149 73.5663C13.2626 76.3895 13.7791 79.113 14.5613 81.6984C14.6817 82.0975 14.4558 82.519 14.0567 82.6398C13.6573 82.7605 13.2361 82.5344 13.1152 82.1351C12.3013 79.445 11.7661 76.6201 11.5098 73.6991C11.4733 73.2835 11.7803 72.9166 12.1959 72.8802ZM13.8781 56.1528C14.283 56.2531 14.5302 56.6628 14.43 57.0677C13.7438 59.8373 13.2808 62.5813 13.04 65.272C13.0028 65.6874 12.6364 65.9936 12.221 65.9567C11.8056 65.9195 11.4979 65.5531 11.5349 65.1377C11.7828 62.3669 12.2592 59.5465 12.9632 56.7047C13.0636 56.2997 13.4731 56.0525 13.8781 56.1528ZM201.347 59.9539C201.722 59.7716 202.174 59.9276 202.356 60.3022C202.539 60.6773 202.383 61.1303 202.008 61.313C200.765 61.9184 199.515 62.5085 198.254 63.0778C197.874 63.2495 197.426 63.0802 197.254 62.7C197.082 62.3198 197.251 61.8714 197.631 61.6996C198.877 61.137 200.115 60.5539 201.347 59.9539ZM215.944 52.3118C216.312 52.1153 216.769 52.2541 216.966 52.6217C217.163 52.9897 217.024 53.4476 216.656 53.6443C214.219 54.9465 211.794 56.2608 209.379 57.5413C209.01 57.7367 208.552 57.5971 208.356 57.2285C208.161 56.8598 208.302 56.4013 208.67 56.2059C211.085 54.9257 213.494 53.6208 215.944 52.3118ZM337.301 51.6035C337.537 51.2592 338.006 51.1707 338.351 51.4058C339.567 52.2375 340.739 53.1061 341.859 54.0132C342.184 54.2758 342.233 54.7514 341.97 55.0756C341.708 55.3998 341.232 55.4503 340.908 55.1877C339.821 54.3078 338.684 53.4624 337.499 52.6527C337.155 52.4173 337.066 51.948 337.301 51.6035ZM230.775 44.9427C231.157 44.7746 231.603 44.9476 231.771 45.3293C231.939 45.7109 231.766 46.1569 231.384 46.3253C228.85 47.4414 226.382 48.6233 223.959 49.8402C223.586 50.0274 223.131 49.8766 222.944 49.5037C222.757 49.1311 222.908 48.6774 223.28 48.49C225.72 47.2646 228.212 46.0714 230.775 44.9427ZM19.2316 40.8612C19.4324 40.4955 19.8914 40.3625 20.2571 40.5631C20.6228 40.7639 20.7574 41.2229 20.5567 41.5886C19.1834 44.0896 17.9946 46.6112 16.9902 49.1334C16.8358 49.5209 16.3965 49.711 16.0089 49.5569C15.6213 49.4025 15.4327 48.9632 15.5869 48.5756C16.6148 45.9943 17.829 43.4156 19.2316 40.8612ZM321.87 43.9762C322.016 43.5856 322.451 43.3872 322.842 43.5335C325.612 44.5722 328.282 45.7268 330.823 47.0011C331.196 47.1881 331.348 47.642 331.161 48.0149C330.974 48.3878 330.519 48.5383 330.146 48.3513C327.657 47.1031 325.037 45.9702 322.312 44.9486C321.922 44.8021 321.723 44.3668 321.87 43.9762ZM246.422 39.3826C246.826 39.2759 247.239 39.5164 247.346 39.9197C247.452 40.3229 247.212 40.7367 246.809 40.8435C244.113 41.557 241.514 42.3759 238.994 43.2782C238.601 43.4188 238.17 43.2149 238.029 42.8222C237.888 42.4294 238.092 41.9964 238.485 41.8557C241.042 40.9402 243.682 40.108 246.422 39.3826ZM306.135 38.8234C309 39.4037 311.822 40.0779 314.577 40.8479C314.979 40.9602 315.213 41.3771 315.101 41.779C314.988 42.1804 314.572 42.4151 314.17 42.3028C311.452 41.5434 308.667 40.8784 305.836 40.3049C305.427 40.222 305.163 39.8225 305.245 39.4136C305.329 39.0052 305.727 38.7409 306.135 38.8234ZM262.984 36.5716C263.4 36.5343 263.767 36.841 263.805 37.2563C263.842 37.6716 263.535 38.0391 263.12 38.0767C261.68 38.2059 260.258 38.3556 258.859 38.5253C257.482 38.6922 256.131 38.8891 254.805 39.1126C254.394 39.1819 254.004 38.9043 253.934 38.4928C253.865 38.0814 254.143 37.6916 254.554 37.6222C255.903 37.395 257.276 37.1958 258.676 37.0261C260.091 36.8545 261.529 36.7022 262.984 36.5716ZM288.964 36.4521C291.844 36.6781 294.725 36.9852 297.584 37.3773C297.997 37.4342 298.285 37.8156 298.229 38.2287C298.172 38.6421 297.791 38.9317 297.378 38.875C294.549 38.4871 291.698 38.1824 288.846 37.9587C288.43 37.9259 288.12 37.5629 288.152 37.1471C288.185 36.7312 288.548 36.4197 288.964 36.4521ZM271.64 36.0507C274.493 35.9602 277.39 35.9461 280.308 36.0138C280.725 36.0235 281.055 36.3699 281.046 36.787C281.036 37.2041 280.69 37.5345 280.272 37.5248C277.382 37.4578 274.513 37.4706 271.687 37.5602C271.271 37.5732 270.922 37.2465 270.908 36.8298C270.895 36.4128 271.223 36.0639 271.64 36.0507ZM29.0369 26.9522C29.3123 26.6387 29.7903 26.6076 30.1038 26.8828C30.4173 27.1582 30.4485 27.6362 30.1732 27.9497C28.2904 30.093 26.5624 32.2851 24.9894 34.5102C24.7484 34.8505 24.2764 34.931 23.9358 34.6902C23.5955 34.4492 23.515 33.9772 23.7558 33.6366C25.3596 31.368 27.1198 29.1346 29.0369 26.9522ZM41.4585 15.3303C41.7885 15.0753 42.2627 15.1349 42.518 15.4646C42.7733 15.7947 42.7123 16.2703 42.3823 16.5256C40.1264 18.2702 38.0017 20.0791 36.0077 21.941C35.7027 22.2258 35.2241 22.2091 34.9393 21.9041C34.6549 21.5991 34.6714 21.1219 34.9762 20.8373C37.0049 18.943 39.1658 17.1036 41.4585 15.3303ZM55.7541 6.13146C56.1226 5.93568 56.5809 6.07586 56.7767 6.44429C56.9725 6.81272 56.8323 7.27104 56.4639 7.46688C53.9395 8.80856 51.5262 10.2223 49.2246 11.7004C48.8735 11.9258 48.4054 11.8242 48.1799 11.4731C47.9548 11.1222 48.0565 10.6554 48.4071 10.4299C50.7442 8.92902 53.1932 7.49256 55.7541 6.13146ZM67.3479 0.807503C67.7361 0.65547 68.1738 0.847315 68.3262 1.23543C68.4787 1.62376 68.2881 2.06267 67.8998 2.21522C66.5781 2.73447 65.2803 3.27125 64.0072 3.82658C63.6248 3.99335 63.1795 3.81923 63.0126 3.43702C62.8458 3.05456 63.0212 2.60929 63.4036 2.44247C64.694 1.87965 66.0089 1.33353 67.3479 0.807503Z" fill="#D1E0EF"/>
<circle cx="170.689" cy="72.9361" r="59.685" fill="#F3F7FB" stroke="#D1E0EF" stroke-width="1.51101"/>
<path fill-rule="evenodd" clip-rule="evenodd" d="M192.108 46.8376C192.885 46.06 194.146 46.06 194.924 46.8376C195.702 47.6153 195.702 48.8761 194.924 49.6537L145.172 99.4054C144.394 100.183 143.134 100.183 142.356 99.4054C141.578 98.6276 141.578 97.3671 142.356 96.5893L192.108 46.8376ZM177.188 53.6792C175.526 52.7157 172.817 52.1293 169.991 52.1318C167.114 52.1342 163.797 52.7442 160.933 54.4971L160.895 54.5204L160.858 54.5453C157.041 57.124 155.449 60.425 154.54 63.2142C151.73 62.8857 148.977 63.4806 147.377 64.1659L147.317 64.1919L147.258 64.2218C141.966 66.9172 139.922 70.8644 139.299 74.2128C138.994 75.8464 139.033 77.2971 139.147 78.3402C139.204 78.8642 139.28 79.2929 139.345 79.6C139.378 79.7537 139.408 79.8777 139.431 79.9686L139.454 80.058L139.457 80.0697C139.468 80.1173 139.483 80.1814 139.503 80.2606C139.543 80.4189 139.602 80.638 139.685 80.9053C139.849 81.4384 140.107 82.1717 140.491 83.0012C141.251 84.6434 142.548 86.7626 144.674 88.4118C145.543 89.086 146.793 88.9283 147.468 88.0593C148.142 87.1903 147.984 85.9394 147.115 85.2655C145.662 84.1376 144.705 82.6249 144.106 81.3293C143.81 80.69 143.613 80.128 143.491 79.733C143.43 79.5362 143.389 79.3831 143.364 79.2851C143.352 79.2363 143.344 79.2013 143.339 79.1818L143.335 79.1644L143.32 79.0894L143.299 79.0181L143.289 78.9808C143.279 78.9404 143.262 78.8707 143.241 78.7745C143.2 78.5817 143.147 78.2855 143.106 77.9098C143.024 77.1536 142.997 76.1058 143.214 74.942C143.63 72.7073 144.962 69.8827 149.004 67.8023C150.349 67.245 153.068 66.76 155.385 67.4283C155.898 67.576 156.448 67.5121 156.912 67.251C157.377 66.9898 157.718 66.5532 157.858 66.0388C158.632 63.201 159.649 60.1848 163.05 57.8709C165.111 56.6219 167.634 56.1164 169.994 56.1144C172.418 56.1123 174.352 56.6386 175.191 57.125C176.143 57.6765 177.361 57.3522 177.913 56.4006C178.464 55.4491 178.14 54.2307 177.188 53.6792ZM184.641 64.5161C191.433 61.8627 196.905 65.9489 198.943 68.0029C203.182 72.1433 203.731 78.2879 201.036 83.395C198.836 87.5627 194.388 90.5739 189.071 90.93L189.004 90.9343H161.424C160.324 90.9343 159.433 90.043 159.433 88.943C159.433 87.8434 160.324 86.9517 161.424 86.9517H188.869C192.807 86.6666 195.981 84.4403 197.514 81.5362C199.491 77.7889 198.985 73.6031 196.151 70.8431L196.125 70.8172C194.44 69.114 190.608 66.4608 186.09 68.2257C185.066 68.6259 183.911 68.1199 183.511 67.0955C183.111 66.0711 183.616 64.9163 184.641 64.5161Z" fill="#B3CBE4"/>
<circle cx="296.158" cy="37.4571" r="10.3882" fill="white"/>
<path d="M296.129 47.7853C301.85 47.7853 306.487 43.1477 306.487 37.4268C306.487 31.706 301.85 27.0684 296.129 27.0684C290.408 27.0684 285.771 31.706 285.771 37.4268C285.771 43.1477 290.408 47.7853 296.129 47.7853Z" stroke="#D1E0EF" stroke-width="0.944383" stroke-linecap="round" stroke-linejoin="round"/>
<path d="M295.218 47.6893C293.817 45.6342 292.73 41.6923 292.73 37.4265C292.73 33.1606 293.817 29.164 295.218 27.1089" stroke="#D1E0EF" stroke-width="0.944383" stroke-linecap="round" stroke-linejoin="round"/>
<path d="M285.77 37.4272H306.487" stroke="#D1E0EF" stroke-width="0.944383" stroke-linecap="round" stroke-linejoin="round"/>
<path d="M287.365 42.9512H304.892" stroke="#D1E0EF" stroke-width="0.944383" stroke-linecap="round" stroke-linejoin="round"/>
<path d="M287.365 31.9028H304.892" stroke="#D1E0EF" stroke-width="0.944383" stroke-linecap="round" stroke-linejoin="round"/>
<path d="M297.766 27.2397C299.167 29.2949 300.165 33.1608 300.165 37.4267C300.165 41.6925 299.167 45.569 297.766 47.6242" stroke="#D1E0EF" stroke-width="0.944383" stroke-linecap="round" stroke-linejoin="round"/>
<circle cx="18.1324" cy="43.5005" r="16.6211" fill="white"/>
<path d="M18.0848 60.0265C27.2381 60.0265 34.6584 52.6063 34.6584 43.453C34.6584 34.2996 27.2381 26.8794 18.0848 26.8794C8.93147 26.8794 1.51123 34.2996 1.51123 43.453C1.51123 52.6063 8.93147 60.0265 18.0848 60.0265Z" stroke="#D1E0EF" stroke-width="1.51101" stroke-linecap="round" stroke-linejoin="round"/>
<path d="M16.6281 59.873C14.3859 56.5848 12.647 50.2779 12.647 43.4525C12.647 36.6271 14.3859 30.2325 16.6281 26.9443" stroke="#D1E0EF" stroke-width="1.51101" stroke-linecap="round" stroke-linejoin="round"/>
<path d="M1.51123 43.4526H34.6584" stroke="#D1E0EF" stroke-width="1.51101" stroke-linecap="round" stroke-linejoin="round"/>
<path d="M4.0625 52.2915H32.1065" stroke="#D1E0EF" stroke-width="1.51101" stroke-linecap="round" stroke-linejoin="round"/>
<path d="M4.0625 34.6143H32.1065" stroke="#D1E0EF" stroke-width="1.51101" stroke-linecap="round" stroke-linejoin="round"/>
<path d="M20.7046 27.1528C22.9468 30.441 24.5443 36.6265 24.5443 43.4519C24.5443 50.2773 22.9468 56.4797 20.7046 59.7679" stroke="#D1E0EF" stroke-width="1.51101" stroke-linecap="round" stroke-linejoin="round"/>
</svg>
