<?xml version="1.0" encoding="UTF-8" standalone="no"?>
<!DOCTYPE svg PUBLIC "-//W3C//DTD SVG 1.1//EN" "http://www.w3.org/Graphics/SVG/1.1/DTD/svg11.dtd">
<!-- Created with Vectornator (http://vectornator.io/) -->
<svg height="24.0pt" stroke-miterlimit="10" style="fill-rule:nonzero;clip-rule:evenodd;stroke-linecap:round;stroke-linejoin:round;" version="1.1" viewBox="0 0 24 24" width="24.0pt" xml:space="preserve" xmlns="http://www.w3.org/2000/svg" xmlns:xlink="http://www.w3.org/1999/xlink">
<defs/>
<g id="Untitled">
<g opacity="1">
<path d="M12 18.8594L12 22.2812" fill="none" opacity="1" stroke="#9f9f9f" stroke-linecap="round" stroke-linejoin="round" stroke-width="1.5"/>
<path d="M11.5469 1.75016L12.4531 1.75016C12.4531 1.75016 16.0781 1.75016 16.0781 5.40013L16.0781 12.0157C16.0781 12.0157 16.0781 15.6657 12.4531 15.6657L11.5469 15.6657C11.5469 15.6657 7.92187 15.6657 7.92187 12.0157L7.92187 5.40013C7.92187 5.40013 7.92187 1.75016 11.5469 1.75016Z" fill="none" opacity="1" stroke="#9f9f9f" stroke-linecap="round" stroke-linejoin="round" stroke-width="1.5"/>
<path d="M4.75 10.4088L4.75 12.3589C4.75 14.0829 5.4661 15.7364 6.74076 16.9555C8.01542 18.1745 9.74423 18.8594 11.5469 18.8594L12.4531 18.8594C14.2557 18.8594 15.9846 18.1745 17.2592 16.9555C18.5339 15.7364 19.25 14.0829 19.25 12.3589L19.25 10.4088" fill="none" opacity="1" stroke="#9f9f9f" stroke-linecap="round" stroke-linejoin="round" stroke-width="1.5"/>
</g>
</g>
</svg>
