<svg xmlns="http://www.w3.org/2000/svg" fill="none" viewBox="0 0 16 16"><path fill="currentColor" fill-rule="evenodd" d="M7.406 1.512a1.54 1.54 0 0 0-1.063.678c-.04.061-.205.377-.367.701l-.295.59H4.058v-.226q0-.355-.062-.475a.6.6 0 0 0-.252-.235.56.56 0 0 0-.405-.021.66.66 0 0 0-.3.272c-.04.077-.043.102-.048.384l-.006.302h-.742c-.409 0-.807.008-.887.017-.639.077-1.128.507-1.313 1.154l-.037.128-.005 4.12c-.003 2.923 0 4.162.014 4.264.084.645.527 1.137 1.172 1.302.124.032.284.033 6.813.033 6.53 0 6.689 0 6.813-.033.645-.165 1.088-.657 1.172-1.302.013-.102.017-1.34.014-4.263l-.005-4.12-.037-.13c-.185-.646-.674-1.076-1.313-1.153-.08-.01-.412-.017-.74-.017h-.595l-.252-.506c-.312-.626-.407-.797-.53-.944a1.67 1.67 0 0 0-.784-.492l-.133-.037L9.563 1.5a88 88 0 0 0-2.157.012M7.49 2.58c-.19.058-.22.103-.66.983-.421.842-.435.862-.612.944l-.078.037-2.37.008-2.37.009-.071.037a.54.54 0 0 0-.215.215l-.038.07-.004 4.095-.004 4.095.053.108a.46.46 0 0 0 .258.235c.041.015 1.637.02 6.621.02s6.58-.005 6.62-.02a.46.46 0 0 0 .26-.235l.052-.108-.004-4.095-.005-4.095-.037-.07a.54.54 0 0 0-.215-.215c-.07-.037-.083-.038-.954-.046l-.883-.008-.085-.045c-.168-.09-.189-.122-.613-.969-.343-.686-.406-.8-.467-.852-.14-.12-.01-.114-2.181-.112-1.075 0-1.974.007-1.998.014m1.657 1.916a4.04 4.04 0 0 0-2.49 1.16 4.04 4.04 0 0 0-1.146 2.32c-.032.24-.037.761-.01.985a4.04 4.04 0 0 0 2.075 3.067c.88.48 1.926.611 2.906.364a4.1 4.1 0 0 0 1.92-1.126 4.05 4.05 0 0 0 1.085-2.334 5.4 5.4 0 0 0 0-.86 4.04 4.04 0 0 0-1.792-2.933 4.2 4.2 0 0 0-1.807-.638 6 6 0 0 0-.741-.005m-6.498.993a.75.75 0 0 0-.426.218.782.782 0 0 0 .137 1.216c.238.15.613.147.839-.008a.9.9 0 0 0 .286-.337.57.57 0 0 0 .06-.28.7.7 0 0 0-.14-.495.78.78 0 0 0-.756-.314m6.37.1a2.9 2.9 0 0 0-1.605.824 2.94 2.94 0 0 0-.843 1.682c-.029.205-.025.658.007.85.114.676.399 1.219.881 1.681.288.276.565.456.93.604.377.153.686.211 1.115.21a2.6 2.6 0 0 0 .833-.118c.464-.14.841-.36 1.192-.693.41-.39.69-.877.826-1.43.062-.252.082-.424.081-.711a2.89 2.89 0 0 0-.861-2.073c-.456-.455-1.001-.729-1.66-.834a3.5 3.5 0 0 0-.896.008" clip-rule="evenodd"/></svg>
