<?xml version="1.0" encoding="UTF-8" standalone="no"?>
<!DOCTYPE svg PUBLIC "-//W3C//DTD SVG 1.1//EN" "http://www.w3.org/Graphics/SVG/1.1/DTD/svg11.dtd">
<!-- Created with Vectornator (http://vectornator.io/) -->
<svg height="24.0pt" stroke-miterlimit="10" style="fill-rule:nonzero;clip-rule:evenodd;stroke-linecap:round;stroke-linejoin:round;" version="1.1" viewBox="0 0 24 24" width="24.0pt" xml:space="preserve" xmlns="http://www.w3.org/2000/svg" xmlns:xlink="http://www.w3.org/1999/xlink">
<defs/>
<g id="Untitled">
<path d="M14.15 17.9047C16.9206 17.9047 19.1667 15.5915 19.1667 12.7381C19.1667 9.88464 16.9206 7.57146 14.15 7.57146C11.3794 7.57146 9.13333 9.88464 9.13333 12.7381C9.13333 15.5915 11.3794 17.9047 14.15 17.9047Z" fill="none" opacity="1" stroke="#9f9f9f" stroke-linecap="round" stroke-linejoin="round" stroke-width="1.5"/>
<path d="M19.1667 6.09528L18.1299 3.95875C18.0108 3.71353 17.8277 3.50731 17.6013 3.36321C17.3747 3.21911 17.1138 3.14283 16.8475 3.14291L11.4525 3.14291C11.1862 3.14283 10.9253 3.21911 10.6987 3.36321C10.4723 3.50731 10.2892 3.71353 10.1701 3.95875L9.13333 6.09528L2.68333 6.09528C2.30319 6.09528 1.93861 6.25081 1.66981 6.52764C1.40101 6.80447 1.25 7.17995 1.25 7.57146L1.25 19.3809C1.25 19.7724 1.40101 20.1479 1.66981 20.4248C1.93861 20.7016 2.30319 20.8571 2.68333 20.8571L21.3167 20.8571C21.6968 20.8571 22.0614 20.7016 22.3302 20.4248C22.599 20.1479 22.75 19.7724 22.75 19.3809L22.75 7.57146C22.75 7.17995 22.599 6.80447 22.3302 6.52764C22.0614 6.25081 21.6968 6.09528 21.3167 6.09528L19.1667 6.09528Z" fill="none" opacity="1" stroke="#9f9f9f" stroke-linecap="round" stroke-linejoin="round" stroke-width="1.5"/>
<path d="M4.475 9.78573C4.27709 9.78573 4.11667 9.6205 4.11667 9.41668C4.11667 9.21286 4.27709 9.04764 4.475 9.04764" fill="none" opacity="1" stroke="#9f9f9f" stroke-linecap="butt" stroke-linejoin="miter" stroke-width="1.5"/>
<path d="M4.475 9.78573C4.67291 9.78573 4.83333 9.6205 4.83333 9.41668C4.83333 9.21286 4.67291 9.04764 4.475 9.04764" fill="none" opacity="1" stroke="#9f9f9f" stroke-linecap="butt" stroke-linejoin="miter" stroke-width="1.5"/>
<path d="M5.55 6.09528L5.55 4.61909" fill="none" opacity="1" stroke="#9f9f9f" stroke-linecap="round" stroke-linejoin="round" stroke-width="1.5"/>
</g>
</svg>
