<?xml version="1.0" encoding="UTF-8"?>
<!--Generator: Apple Native CoreSVG 341-->
<!DOCTYPE svg
PUBLIC "-//W3C//DTD SVG 1.1//EN"
       "http://www.w3.org/Graphics/SVG/1.1/DTD/svg11.dtd">
<svg version="1.1" xmlns="http://www.w3.org/2000/svg" xmlns:xlink="http://www.w3.org/1999/xlink" viewBox="0 0 3300 2200">
 <!--glyph: "", point size: 100.0, font version: "21.0d6e2", template writer version: "138.0.0"-->
 <style>.defaults {-sfsymbols-variable-value-mode:color;-sfsymbols-draw-reverses-motion-groups:true}

.monochrome-0 {-sfsymbols-motion-group:1;-sfsymbols-layer-tags:-699c206758f9be0f}
.monochrome-1 {-sfsymbols-motion-group:0;-sfsymbols-always-pulses:true;-sfsymbols-layer-tags:-699c206758f9be0f}

.multicolor-0:tintColor {-sfsymbols-motion-group:1;-sfsymbols-layer-tags:-699c206758f9be0f}
.multicolor-1:secondaryLabelColor {-sfsymbols-motion-group:0;-sfsymbols-always-pulses:true;-sfsymbols-layer-tags:-699c206758f9be0f}

.hierarchical-0:primary {-sfsymbols-motion-group:1;-sfsymbols-layer-tags:-699c206758f9be0f}
.hierarchical-1:secondary {-sfsymbols-motion-group:0;-sfsymbols-always-pulses:true;-sfsymbols-layer-tags:-699c206758f9be0f}

.SFSymbolsPreviewWireframe {fill:none;opacity:1.0;stroke:black;stroke-width:0.5}
</style>
 <g id="Notes">
  <rect height="2200" id="artboard" style="fill:white;opacity:1" width="3300" x="0" y="0"/>
  <line style="fill:none;stroke:black;opacity:1;stroke-width:0.5;" x1="263" x2="3036" y1="292" y2="292"/>
  <text style="stroke:none;fill:black;font-family:sans-serif;font-size:13;font-weight:bold;" transform="matrix(1 0 0 1 263 322)">Weight/Scale Variations</text>
  <text style="stroke:none;fill:black;font-family:sans-serif;font-size:13;text-anchor:middle;" transform="matrix(1 0 0 1 559.711 322)">Ultralight</text>
  <text style="stroke:none;fill:black;font-family:sans-serif;font-size:13;text-anchor:middle;" transform="matrix(1 0 0 1 856.422 322)">Thin</text>
  <text style="stroke:none;fill:black;font-family:sans-serif;font-size:13;text-anchor:middle;" transform="matrix(1 0 0 1 1153.13 322)">Light</text>
  <text style="stroke:none;fill:black;font-family:sans-serif;font-size:13;text-anchor:middle;" transform="matrix(1 0 0 1 1449.84 322)">Regular</text>
  <text style="stroke:none;fill:black;font-family:sans-serif;font-size:13;text-anchor:middle;" transform="matrix(1 0 0 1 1746.56 322)">Medium</text>
  <text style="stroke:none;fill:black;font-family:sans-serif;font-size:13;text-anchor:middle;" transform="matrix(1 0 0 1 2043.27 322)">Semibold</text>
  <text style="stroke:none;fill:black;font-family:sans-serif;font-size:13;text-anchor:middle;" transform="matrix(1 0 0 1 2339.98 322)">Bold</text>
  <text style="stroke:none;fill:black;font-family:sans-serif;font-size:13;text-anchor:middle;" transform="matrix(1 0 0 1 2636.69 322)">Heavy</text>
  <text style="stroke:none;fill:black;font-family:sans-serif;font-size:13;text-anchor:middle;" transform="matrix(1 0 0 1 2933.4 322)">Black</text>
  <line style="fill:none;stroke:black;opacity:1;stroke-width:0.5;" x1="263" x2="3036" y1="1903" y2="1903"/>
  <g transform="matrix(0.2 0 0 0.2 263 1933)">
   <path d="m46.2402 4.15039c21.7773 0 39.4531-17.627 39.4531-39.4043s-17.6758-39.4043-39.4531-39.4043c-21.7285 0-39.4043 17.627-39.4043 39.4043s17.6758 39.4043 39.4043 39.4043Zm0-7.42188c-17.6758 0-31.9336-14.3066-31.9336-31.9824s14.2578-31.9824 31.9336-31.9824 31.9824 14.3066 31.9824 31.9824-14.3066 31.9824-31.9824 31.9824Zm3.61328-17.7734v-28.4668c0-2.24609-1.46484-3.75977-3.71094-3.75977-2.14844 0-3.61328 1.51367-3.61328 3.75977v28.4668c0 2.19727 1.46484 3.71094 3.61328 3.71094 2.24609 0 3.71094-1.51367 3.71094-3.71094Zm-17.8223-10.5957h28.418c2.19727 0 3.71094-1.46484 3.71094-3.61328 0-2.19727-1.51367-3.71094-3.71094-3.71094h-28.418c-2.24609 0-3.75977 1.51367-3.75977 3.71094 0 2.14844 1.51367 3.61328 3.75977 3.61328Z"/>
  </g>
  <g transform="matrix(0.2 0 0 0.2 281.506 1933)">
   <path d="m58.5449 14.5508c27.4902 0 49.8047-22.3145 49.8047-49.8047s-22.3145-49.8047-49.8047-49.8047-49.8047 22.3145-49.8047 49.8047 22.3145 49.8047 49.8047 49.8047Zm0-8.30078c-22.9492 0-41.5039-18.5547-41.5039-41.5039s18.5547-41.5039 41.5039-41.5039 41.5039 18.5547 41.5039 41.5039-18.5547 41.5039-41.5039 41.5039Zm4.05273-23.0957v-36.9141c0-2.49023-1.70898-4.19922-4.15039-4.19922-2.39258 0-4.05273 1.70898-4.05273 4.19922v36.9141c0 2.44141 1.66016 4.15039 4.05273 4.15039 2.44141 0 4.15039-1.66016 4.15039-4.15039Zm-22.5586-14.4043h36.9629c2.44141 0 4.15039-1.61133 4.15039-4.00391 0-2.44141-1.70898-4.15039-4.15039-4.15039h-36.9629c-2.49023 0-4.15039 1.70898-4.15039 4.15039 0 2.39258 1.66016 4.00391 4.15039 4.00391Z"/>
  </g>
  <g transform="matrix(0.2 0 0 0.2 304.924 1933)">
   <path d="m74.8535 28.3203c35.1074 0 63.623-28.4668 63.623-63.5742s-28.5156-63.623-63.623-63.623-63.5742 28.5156-63.5742 63.623 28.4668 63.5742 63.5742 63.5742Zm0-9.08203c-30.127 0-54.4922-24.3652-54.4922-54.4922s24.3652-54.4922 54.4922-54.4922 54.4922 24.3652 54.4922 54.4922-24.3652 54.4922-54.4922 54.4922Zm4.44336-30.3223v-48.4863c0-2.73438-1.85547-4.63867-4.54102-4.63867-2.58789 0-4.44336 1.9043-4.44336 4.63867v48.4863c0 2.68555 1.85547 4.58984 4.44336 4.58984 2.68555 0 4.54102-1.85547 4.54102-4.58984Zm-28.7109-19.7754h48.4863c2.68555 0 4.58984-1.80664 4.58984-4.39453 0-2.73438-1.85547-4.58984-4.58984-4.58984h-48.4863c-2.73438 0-4.58984 1.85547-4.58984 4.58984 0 2.58789 1.85547 4.39453 4.58984 4.39453Z"/>
  </g>
  <text style="stroke:none;fill:black;font-family:sans-serif;font-size:13;font-weight:bold;" transform="matrix(1 0 0 1 263 1953)">Design Variations</text>
  <text style="stroke:none;fill:black;font-family:sans-serif;font-size:13;" transform="matrix(1 0 0 1 263 1971)">Symbols are supported in up to nine weights and three scales.</text>
  <text style="stroke:none;fill:black;font-family:sans-serif;font-size:13;" transform="matrix(1 0 0 1 263 1989)">For optimal layout with text and other symbols, vertically align</text>
  <text style="stroke:none;fill:black;font-family:sans-serif;font-size:13;" transform="matrix(1 0 0 1 263 2007)">symbols with the adjacent text.</text>
  <line style="fill:none;stroke:#00AEEF;stroke-width:0.5;opacity:1.0;" x1="776" x2="776" y1="1919" y2="1933"/>
  <g transform="matrix(0.2 0 0 0.2 776 1933)">
   <path d="m16.5527 0.78125c2.58789 0 3.85742-0.976562 4.78516-3.71094l20.5566-57.5195h0.244141l20.6055 57.5195c0.927734 2.73438 2.19727 3.71094 4.73633 3.71094 2.58789 0 4.24805-1.5625 4.24805-4.00391 0-0.830078-0.146484-1.61133-0.537109-2.63672l-22.9004-60.9863c-1.12305-2.97852-3.125-4.49219-6.25-4.49219-3.02734 0-5.07812 1.46484-6.15234 4.44336l-22.9004 61.084c-0.390625 1.02539-0.537109 1.80664-0.537109 2.63672 0 2.44141 1.5625 3.95508 4.10156 3.95508Zm10.2051-20.9473h30.6641c2.00195 0 3.66211-1.66016 3.66211-3.66211 0-2.05078-1.66016-3.66211-3.66211-3.66211h-30.6641c-2.00195 0-3.66211 1.61133-3.66211 3.66211 0 2.00195 1.66016 3.66211 3.66211 3.66211Z"/>
  </g>
  <line style="fill:none;stroke:#00AEEF;stroke-width:0.5;opacity:1.0;" x1="792.836" x2="792.836" y1="1919" y2="1933"/>
  <text style="stroke:none;fill:black;font-family:sans-serif;font-size:13;font-weight:bold;" transform="matrix(1 0 0 1 776 1953)">Margins</text>
  <text style="stroke:none;fill:black;font-family:sans-serif;font-size:13;" transform="matrix(1 0 0 1 776 1971)">Leading and trailing margins on the left and right side of each symbol</text>
  <text style="stroke:none;fill:black;font-family:sans-serif;font-size:13;" transform="matrix(1 0 0 1 776 1989)">can be adjusted by modifying the x-location of the margin guidelines.</text>
  <text style="stroke:none;fill:black;font-family:sans-serif;font-size:13;" transform="matrix(1 0 0 1 776 2007)">Modifications are automatically applied proportionally to all</text>
  <text style="stroke:none;fill:black;font-family:sans-serif;font-size:13;" transform="matrix(1 0 0 1 776 2025)">scales and weights.</text>
  <g transform="matrix(0.2 0 0 0.2 1289 1933)">
   <path d="m14.209 13.1348 7.86133 7.86133c4.29688 4.39453 9.32617 4.10156 13.8672-1.02539l60.6934-68.2129-4.88281-4.88281-60.2539 67.6758c-1.80664 1.95312-3.4668 2.44141-5.81055 0.0976562l-5.17578-5.12695c-2.29492-2.29492-1.80664-3.95508 0.195312-5.81055l67.4805-62.1582-4.88281-4.83398-68.0664 62.5977c-4.98047 4.58984-5.32227 9.47266-1.02539 13.8184Zm44.873-97.4609c-2.05078 2.00195-2.24609 4.88281-1.07422 6.78711 1.12305 1.80664 3.4668 3.02734 6.5918 2.24609 5.85938-1.66016 12.5977-2.39258 18.8965 0.927734l-2.68555 7.12891c-1.61133 4.00391-0.732422 6.88477 1.70898 9.42383l10.2539 10.3027c2.34375 2.39258 4.54102 2.44141 7.08008 1.95312l4.44336-0.732422 2.58789 2.53906-0.195312 2.24609c-0.0976562 2.29492 0.537109 4.29688 2.7832 6.49414l3.36914 3.32031c2.29492 2.29492 5.51758 2.49023 7.8125 0.195312l12.9883-13.0371c2.29492-2.34375 2.14844-5.37109-0.195312-7.66602l-3.41797-3.41797c-2.19727-2.19727-4.05273-3.02734-6.34766-2.88086l-2.34375 0.244141-2.44141-2.44141 1.02539-4.6875c0.634766-2.73438-0.244141-4.98047-2.88086-7.61719l-11.2793-11.1816c-12.9395-12.8418-35.5957-11.0352-46.6797-0.146484Zm7.08008 2.05078c8.78906-6.39648 25.9766-5.66406 33.6914 1.95312l12.3047 12.207c1.02539 1.02539 1.2207 1.80664 0.927734 3.32031l-1.46484 6.64062 6.73828 6.68945 4.39453-0.244141c1.12305-0.0488281 1.51367 0.0488281 2.34375 0.878906l2.53906 2.49023-10.8398 10.8398-2.49023-2.49023c-0.830078-0.878906-0.976562-1.2207-0.927734-2.39258l0.292969-4.3457-6.68945-6.73828-6.83594 1.17188c-1.41602 0.292969-2.05078 0.195312-3.17383-0.878906l-8.93555-8.88672c-1.07422-1.02539-1.17188-1.70898-0.488281-3.36914l4.58984-11.4746c-6.10352-6.34766-17.041-7.51953-25.5859-4.58984-0.683594 0.244141-0.927734-0.390625-0.390625-0.78125Z"/>
  </g>
  <text style="stroke:none;fill:black;font-family:sans-serif;font-size:13;font-weight:bold;" transform="matrix(1 0 0 1 1289 1953)">Exporting</text>
  <text style="stroke:none;fill:black;font-family:sans-serif;font-size:13;" transform="matrix(1 0 0 1 1289 1971)">Symbols should be outlined when exporting to ensure the</text>
  <text style="stroke:none;fill:black;font-family:sans-serif;font-size:13;" transform="matrix(1 0 0 1 1289 1989)">design is preserved when submitting to Xcode.</text>
  <text id="template-version" style="stroke:none;fill:black;font-family:sans-serif;font-size:13;text-anchor:end;" transform="matrix(1 0 0 1 3036 1933)">Template v.7.0</text>
  <text style="stroke:none;fill:black;font-family:sans-serif;font-size:13;text-anchor:end;" transform="matrix(1 0 0 1 3036 1951)">Requires Xcode 17 or greater</text>
  <text id="descriptive-name" style="stroke:none;fill:black;font-family:sans-serif;font-size:13;text-anchor:end;" transform="matrix(1 0 0 1 3036 1969)">Generated from euria</text>
  <text style="stroke:none;fill:black;font-family:sans-serif;font-size:13;text-anchor:end;" transform="matrix(1 0 0 1 3036 1987)">Typeset at 100.0 points</text>
  <text style="stroke:none;fill:black;font-family:sans-serif;font-size:13;" transform="matrix(1 0 0 1 263 726)">Small</text>
  <text style="stroke:none;fill:black;font-family:sans-serif;font-size:13;" transform="matrix(1 0 0 1 263 1156)">Medium</text>
  <text style="stroke:none;fill:black;font-family:sans-serif;font-size:13;" transform="matrix(1 0 0 1 263 1586)">Large</text>
 </g>
 <g id="Guides">
  <g id="H-reference" style="fill:#27AAE1;stroke:none;" transform="matrix(1 0 0 1 339 696)">
   <path d="M0.993654 0L3.63775 0L29.3281-67.1323L30.0303-67.1323L30.0303-70.459L28.1226-70.459ZM11.6885-24.4799L46.9815-24.4799L46.2315-26.7285L12.4385-26.7285ZM55.1196 0L57.7637 0L30.6382-70.459L29.4326-70.459L29.4326-67.1323Z"/>
  </g>
  <line id="Baseline-S" style="fill:none;stroke:#27AAE1;opacity:1;stroke-width:0.5;" x1="263" x2="3036" y1="696" y2="696"/>
  <line id="Capline-S" style="fill:none;stroke:#27AAE1;opacity:1;stroke-width:0.5;" x1="263" x2="3036" y1="625.541" y2="625.541"/>
  <g id="H-reference" style="fill:#27AAE1;stroke:none;" transform="matrix(1 0 0 1 339 1126)">
   <path d="M0.993654 0L3.63775 0L29.3281-67.1323L30.0303-67.1323L30.0303-70.459L28.1226-70.459ZM11.6885-24.4799L46.9815-24.4799L46.2315-26.7285L12.4385-26.7285ZM55.1196 0L57.7637 0L30.6382-70.459L29.4326-70.459L29.4326-67.1323Z"/>
  </g>
  <line id="Baseline-M" style="fill:none;stroke:#27AAE1;opacity:1;stroke-width:0.5;" x1="263" x2="3036" y1="1126" y2="1126"/>
  <line id="Capline-M" style="fill:none;stroke:#27AAE1;opacity:1;stroke-width:0.5;" x1="263" x2="3036" y1="1055.54" y2="1055.54"/>
  <g id="H-reference" style="fill:#27AAE1;stroke:none;" transform="matrix(1 0 0 1 339 1556)">
   <path d="M0.993654 0L3.63775 0L29.3281-67.1323L30.0303-67.1323L30.0303-70.459L28.1226-70.459ZM11.6885-24.4799L46.9815-24.4799L46.2315-26.7285L12.4385-26.7285ZM55.1196 0L57.7637 0L30.6382-70.459L29.4326-70.459L29.4326-67.1323Z"/>
  </g>
  <line id="Baseline-L" style="fill:none;stroke:#27AAE1;opacity:1;stroke-width:0.5;" x1="263" x2="3036" y1="1556" y2="1556"/>
  <line id="Capline-L" style="fill:none;stroke:#27AAE1;opacity:1;stroke-width:0.5;" x1="263" x2="3036" y1="1485.54" y2="1485.54"/>
  <line id="right-margin-Black-S" style="fill:none;stroke:#00AEEF;stroke-width:0.5;opacity:1.0;" x1="2982.23" x2="2982.23" y1="600.785" y2="720.121"/>
  <line id="left-margin-Black-S" style="fill:none;stroke:#00AEEF;stroke-width:0.5;opacity:1.0;" x1="2884.57" x2="2884.57" y1="600.785" y2="720.121"/>
  <line id="right-margin-Regular-S" style="fill:none;stroke:#00AEEF;stroke-width:0.5;opacity:1.0;" x1="1496.11" x2="1496.11" y1="600.785" y2="720.121"/>
  <line id="left-margin-Regular-S" style="fill:none;stroke:#00AEEF;stroke-width:0.5;opacity:1.0;" x1="1403.58" x2="1403.58" y1="600.785" y2="720.121"/>
  <line id="right-margin-Ultralight-S" style="fill:none;stroke:#00AEEF;stroke-width:0.5;opacity:1.0;" x1="603.773" x2="603.773" y1="600.785" y2="720.121"/>
  <line id="left-margin-Ultralight-S" style="fill:none;stroke:#00AEEF;stroke-width:0.5;opacity:1.0;" x1="515.649" x2="515.649" y1="600.785" y2="720.121"/>
 </g>
 <g id="Symbols">
  <g id="Black-S" transform="matrix(1 0 0 1 2884.57 696)">
   <path class="monochrome-0 multicolor-0:tintColor hierarchical-0:primary SFSymbolsPreviewWireframe" d="M54.342-73.7132C54.3443-73.7044 54.3485-73.6925 54.3519-73.6785C54.3583-73.6496 54.3686-73.6099 54.3801-73.561C54.4037-73.4619 54.4368-73.3187 54.4816-73.1427C54.5715-72.7908 54.7066-72.291 54.894-71.6716C55.2687-70.4335 55.8549-68.7045 56.7106-66.7105C58.4143-62.7407 61.2349-57.6081 65.6725-53.1707C70.1105-48.7332 75.2427-45.912 79.2124-44.2086C81.2055-43.353 82.9324-42.7693 84.1707-42.3951C84.7891-42.2082 85.2895-42.0729 85.6415-41.9831C85.8175-41.938 85.9606-41.9047 86.0598-41.8815C86.1089-41.87 86.1484-41.8596 86.1772-41.8533C86.1915-41.8498 86.203-41.8455 86.2123-41.8436L86.2344-41.8403C87.1478-41.6444 88.1-41.9245 88.761-42.5852C89.4217-43.246 89.7016-44.1984 89.5058-45.112L89.503-45.1215C89.5021-45.1249 89.5038-45.1296 89.503-45.134C89.5007-45.1434 89.4966-45.1549 89.4935-45.1691C89.487-45.198 89.4764-45.2375 89.4649-45.2862C89.4414-45.3858 89.408-45.5286 89.3634-45.7049C89.2735-46.0569 89.1379-46.557 88.9513-47.1756C88.5769-48.414 87.9929-50.1405 87.1378-52.1339C85.4344-56.1036 82.6166-61.239 78.179-65.6769C73.7411-70.1146 68.6057-72.9323 64.6358-74.6359C62.6415-75.4917 60.9132-76.0779 59.6744-76.4524C59.0551-76.6398 58.5555-76.7749 58.2036-76.8645C58.0276-76.9096 57.8844-76.9426 57.7852-76.9659C57.7368-76.9774 57.6967-76.988 57.6678-76.9945C57.6541-76.9975 57.6421-77.0021 57.6328-77.004L57.6141-77.004C56.6994-77.2006 55.7487-76.9202 55.0871-76.2589C54.5088-75.6806 54.2196-74.8811 54.2885-74.0781L54.342-73.7323L54.342-73.7132ZM43.3139 3.5662C43.3119 3.55712 43.3077 3.54515 43.3044 3.53153C43.2983 3.50263 43.2873 3.46301 43.2761 3.41402C43.2528 3.31482 43.2195 3.17186 43.1747 2.99574C43.0847 2.6435 42.9497 2.14349 42.7625 1.52487C42.3881 0.285983 41.8017-1.44218 40.9459-3.43673C39.2422-7.40643 36.4214-12.5391 31.9838-16.9767C27.5458-21.4144 22.4136-24.2354 18.4439-25.9384C16.4508-26.794 14.7241-27.3774 13.4859-27.752C12.8672-27.9389 12.3667-28.0743 12.0148-28.1641C11.8389-28.2087 11.6956-28.2423 11.5965-28.2657C11.5474-28.2771 11.5079-28.2877 11.479-28.2943C11.4647-28.2973 11.4535-28.3014 11.4443-28.3034L11.4222-28.3065C10.5084-28.5026 9.55625-28.2225 8.89553-27.562C8.23453-26.9007 7.9546-25.9486 8.15046-25.0351L8.15356-25.0254C8.15439-25.0223 8.15273-25.0178 8.15356-25.013C8.15549-25.0037 8.16003-24.9923 8.16305-24.9783C8.16952-24.9491 8.18018-24.9098 8.19167-24.8605C8.21493-24.7614 8.24829-24.6181 8.29308-24.4425C8.38279-24.0903 8.51811-23.5904 8.70531-22.9714C9.07963-21.7332 9.6633-20.0065 10.5185-18.0133C12.2219-14.0435 15.04-8.90812 19.4775-4.47019C23.9152-0.0325444 29.0506 2.78495 33.0205 4.48862C35.0147 5.34445 36.7434 5.93115 37.9819 6.30513C38.6011 6.49267 39.1008 6.62737 39.4527 6.71736C39.6289 6.76249 39.7721 6.79551 39.8713 6.81917C39.9198 6.83059 39.9598 6.84091 39.9885 6.84738C40.0024 6.85082 40.0145 6.85467 40.0235 6.85715L40.0425 6.85715C40.9568 7.05363 41.9079 6.77322 42.5691 6.11195C43.1475 5.53351 43.4367 4.73437 43.368 3.93082L43.3139 3.58519L43.3139 3.5662ZM11.4222-41.8403L11.4443-41.8436C11.4535-41.8455 11.4647-41.8498 11.479-41.8533C11.5079-41.8596 11.5474-41.87 11.5965-41.8815C11.6956-41.9047 11.8389-41.938 12.0148-41.9831C12.3667-42.0729 12.8672-42.2082 13.4859-42.3951C14.7241-42.7693 16.4508-43.353 18.4439-44.2086C22.4136-45.912 27.5458-48.7332 31.9838-53.1707C36.4214-57.6081 39.2422-62.7407 40.9459-66.7105C41.8017-68.7045 42.3881-70.4335 42.7625-71.6716C42.9497-72.291 43.0847-72.7908 43.1747-73.1427C43.2195-73.3187 43.2528-73.4619 43.2761-73.561C43.2873-73.6099 43.2983-73.6496 43.3044-73.6785C43.3077-73.6925 43.3119-73.7044 43.3139-73.7132L43.3139-73.7323L43.368-74.0781C43.4367-74.8811 43.1475-75.6806 42.5691-76.2589C41.9079-76.9202 40.9568-77.2006 40.0425-77.004L40.0235-77.004C40.0145-77.0021 40.0024-76.9975 39.9885-76.9945C39.9598-76.988 39.9198-76.9774 39.8713-76.9659C39.7721-76.9426 39.6289-76.9096 39.4527-76.8645C39.1008-76.7749 38.6011-76.6398 37.9819-76.4524C36.7434-76.0779 35.0147-75.4917 33.0205-74.6359C29.0506-72.9323 23.9152-70.1146 19.4775-65.6769C15.04-61.239 12.2219-56.1036 10.5185-52.1339C9.6633-50.1405 9.07963-48.414 8.70531-47.1756C8.51811-46.557 8.38279-46.0569 8.29308-45.7049C8.24829-45.5286 8.21493-45.3858 8.19167-45.2862C8.18018-45.2375 8.16952-45.198 8.16305-45.1691C8.16003-45.1549 8.15549-45.1434 8.15356-45.134C8.15273-45.1296 8.15439-45.1249 8.15356-45.1215L8.15046-45.112C7.9546-44.1984 8.23453-43.246 8.89553-42.5852C9.55625-41.9245 10.5084-41.6444 11.4222-41.8403ZM86.2344-28.3065L86.2123-28.3034C86.203-28.3014 86.1915-28.2973 86.1772-28.2943C86.1484-28.2877 86.1089-28.2771 86.0598-28.2657C85.9606-28.2423 85.8175-28.2087 85.6415-28.1641C85.2895-28.0743 84.7891-27.9389 84.1707-27.752C82.9324-27.3774 81.2055-26.794 79.2124-25.9384C75.2427-24.2354 70.1105-21.4144 65.6725-16.9767C61.2349-12.5391 58.4143-7.40643 56.7106-3.43673C55.8549-1.44219 55.2687 0.285983 54.894 1.52487C54.7066 2.14349 54.5715 2.6435 54.4816 2.99574C54.4368 3.17186 54.4037 3.31482 54.3801 3.41402C54.3686 3.46301 54.3583 3.50263 54.3519 3.53153C54.3485 3.54515 54.3443 3.55712 54.342 3.5662L54.342 3.58519L54.2885 3.93082C54.2196 4.73436 54.5088 5.53351 55.0871 6.11195C55.7487 6.77322 56.6994 7.05363 57.6141 6.85715L57.6328 6.85715C57.6421 6.85467 57.6541 6.85082 57.6678 6.84738C57.6967 6.84091 57.7368 6.83059 57.7852 6.81917C57.8844 6.79551 58.0276 6.76249 58.2036 6.71736C58.5555 6.62737 59.0551 6.49267 59.6744 6.30513C60.9132 5.93115 62.6415 5.34445 64.6358 4.48862C68.6057 2.78495 73.7411-0.0325449 78.179-4.47019C82.6166-8.90812 85.4344-14.0435 87.1378-18.0133C87.9929-20.0065 88.5769-21.7332 88.9513-22.9714C89.1379-23.5904 89.2735-24.0903 89.3634-24.4425C89.408-24.6181 89.4414-24.7614 89.4649-24.8605C89.4764-24.9098 89.487-24.9491 89.4935-24.9783C89.4966-24.9923 89.5007-25.0037 89.503-25.013C89.5038-25.0178 89.5021-25.0223 89.503-25.0254L89.5058-25.0351C89.7016-25.9486 89.4217-26.9007 88.761-27.562C88.1-28.2225 87.1478-28.5026 86.2344-28.3065Z"/>
   <path class="monochrome-1 multicolor-1:secondaryLabelColor hierarchical-1:secondary SFSymbolsPreviewWireframe" d="M66.5773-30.1595C68.112-30.7831 69.5125-31.27 70.5268-31.5987C71.0314-31.762 71.4383-31.8842 71.7152-31.9664C71.8533-32.0072 71.9598-32.0409 72.029-32.0605C72.0626-32.07 72.0892-32.074 72.1052-32.0784C72.1131-32.0806 72.1201-32.0821 72.1232-32.0829L72.5533-32.2399C73.5155-32.6842 74.1496-33.6546 74.1496-34.7415C74.1496-35.9828 73.3199-37.0724 72.1232-37.4002L72.1052-37.4046C72.0892-37.409 72.0626-37.413 72.029-37.4225C71.9598-37.4422 71.8533-37.4757 71.7152-37.5166C71.4383-37.5987 71.0314-37.7209 70.5268-37.8842C69.5125-38.213 68.112-38.7002 66.5773-39.3235C63.4042-40.6124 60.0384-42.3427 58.1038-44.2775C56.1687-46.2123 54.4385-49.578 53.1498-52.7509C52.5263-54.2856 52.0393-55.6862 51.7106-56.7008C51.5472-57.2051 51.4251-57.6118 51.343-57.8889C51.3021-58.0268 51.2685-58.1335 51.2489-58.2026C51.2393-58.236 51.2354-58.2631 51.2309-58.2788L51.2264-58.2969C50.8986-59.4941 49.8089-60.3232 48.5678-60.3232C47.3265-60.3232 46.2368-59.4941 45.9092-58.2969L45.9047-58.2788C45.9003-58.2631 45.8964-58.236 45.8868-58.2026C45.8672-58.1335 45.8335-58.0268 45.7927-57.8889C45.7105-57.6118 45.5884-57.2051 45.425-56.7008C45.0963-55.6862 44.609-54.2856 43.9859-52.7509C42.6969-49.578 40.9667-46.2123 39.0318-44.2775C37.097-42.3427 33.7314-40.6124 30.5584-39.3235C29.0237-38.7002 27.6232-38.213 26.6086-37.8842C26.1042-37.7209 25.6976-37.5987 25.4205-37.5166C25.2826-37.4757 25.1759-37.4422 25.1067-37.4225C25.073-37.413 25.0461-37.409 25.0304-37.4046L25.0125-37.4002C23.8152-37.0724 22.986-35.9828 22.986-34.7415C22.986-33.5003 23.8152-32.4108 25.0125-32.0829L25.0304-32.0784C25.0461-32.074 25.073-32.07 25.1067-32.0605C25.1759-32.0409 25.2826-32.0072 25.4205-31.9664C25.6976-31.8842 26.1042-31.762 26.6086-31.5987C27.6232-31.27 29.0237-30.7831 30.5584-30.1595C33.7314-28.8708 37.097-27.1406 39.0318-25.2055C40.9667-23.2706 42.6969-19.9051 43.9859-16.7321C44.609-15.1974 45.0963-13.7969 45.425-12.7826C45.5884-12.2779 45.7105-11.8709 45.7927-11.5941C45.8335-11.4559 45.8672-11.3494 45.8868-11.2804C45.8964-11.2468 45.9003-11.2201 45.9047-11.2041C45.9069-11.1963 45.9084-11.1893 45.9092-11.1862L46.0661-10.7561C46.5106-9.79381 47.4809-9.15978 48.5678-9.15978C49.8089-9.15978 50.8986-9.98891 51.2264-11.1862L51.2309-11.2041C51.2354-11.2201 51.2393-11.2468 51.2489-11.2804C51.2685-11.3494 51.3021-11.4559 51.343-11.5941C51.4251-11.8709 51.5472-12.2779 51.7106-12.7826C52.0393-13.7969 52.5263-15.1974 53.1498-16.7321C54.4385-19.9051 56.1687-23.2706 58.1038-25.2055C60.0384-27.1406 63.4042-28.8708 66.5773-30.1595Z"/>
  </g>
  <g id="Regular-S" transform="matrix(1 0 0 1 1403.58 696)">
   <path class="monochrome-0 multicolor-0:tintColor hierarchical-0:primary SFSymbolsPreviewWireframe" d="M51.4388-71.5123C51.4409-71.5041 51.4448-71.493 51.448-71.4798C51.4541-71.4527 51.4637-71.4154 51.4745-71.3695C51.4966-71.2766 51.5277-71.1422 51.5697-70.977C51.6541-70.6468 51.7808-70.1778 51.9568-69.5966C52.3083-68.4348 52.8584-66.8124 53.6614-64.9412C55.2601-61.2161 57.9068-56.3997 62.071-52.2358C66.2354-48.0718 71.0513-45.4245 74.7764-43.826C76.6467-43.0232 78.2672-42.4755 79.4291-42.1243C80.0094-41.949 80.479-41.8219 80.8093-41.7378C80.9744-41.6954 81.1088-41.6642 81.2019-41.6423C81.2479-41.6316 81.2849-41.6218 81.312-41.6159C81.3254-41.6126 81.3362-41.6086 81.3449-41.6068L81.3656-41.6037C82.2228-41.4199 83.1163-41.6828 83.7365-42.3028C84.3566-42.9228 84.6192-43.8165 84.4354-44.6738L84.4329-44.6827C84.432-44.6859 84.4336-44.6903 84.4329-44.6945C84.4307-44.7032 84.4268-44.7141 84.4239-44.7274C84.4178-44.7545 84.4079-44.7915 84.3971-44.8373C84.375-44.9307 84.3437-45.0648 84.3019-45.2301C84.2175-45.5604 84.0903-46.0297 83.9151-46.6102C83.5638-47.7723 83.0158-49.3924 82.2134-51.263C80.615-54.988 77.9709-59.8069 73.8067-63.9713C69.6423-68.1355 64.8234-70.7796 61.0981-72.3782C59.2268-73.1813 57.605-73.7313 56.4425-74.0827C55.8614-74.2586 55.3926-74.3854 55.0623-74.4694C54.8972-74.5118 54.7628-74.5428 54.6698-74.5646C54.6243-74.5754 54.5867-74.5854 54.5596-74.5914C54.5467-74.5943 54.5354-74.5985 54.5268-74.6004L54.5091-74.6004C53.6509-74.7849 52.7588-74.5217 52.1379-73.9012C51.5952-73.3585 51.3239-72.6083 51.3885-71.8548L51.4388-71.5303L51.4388-71.5123ZM41.0903 1.00447C41.0884 0.995948 41.0845 0.984715 41.0813 0.971933C41.0756 0.944819 41.0653 0.907635 41.0548 0.86167C41.033 0.76858 41.0017 0.634431 40.9597 0.469166C40.8752 0.138635 40.7485-0.330563 40.5728-0.911057C40.2216-2.07359 39.6712-3.69526 38.8682-5.56689C37.2695-9.29194 34.6226-14.1083 30.4584-18.2724C26.294-22.4366 21.478-25.0838 17.7529-26.6818C15.8827-27.4847 14.2624-28.0321 13.1005-28.3837C12.52-28.559 12.0503-28.6861 11.7201-28.7704C11.555-28.8122 11.4206-28.8437 11.3275-28.8657C11.2815-28.8764 11.2445-28.8863 11.2173-28.8925C11.2039-28.8954 11.1934-28.8992 11.1847-28.901L11.164-28.904C10.3065-29.088 9.41305-28.8251 8.79304-28.2054C8.17278-27.5849 7.9101-26.6914 8.0939-25.8342L8.0968-25.825C8.09758-25.8222 8.09603-25.8179 8.0968-25.8134C8.09861-25.8048 8.10287-25.7941 8.10571-25.7809C8.11178-25.7535 8.12178-25.7166 8.13257-25.6704C8.15439-25.5774 8.1857-25.4429 8.22772-25.2781C8.3119-24.9476 8.43889-24.4785 8.61455-23.8976C8.9658-22.7357 9.5135-21.1155 10.316-19.2452C11.9144-15.52 14.5588-10.7011 18.7229-6.53666C22.8871-2.37249 27.706 0.271364 31.4313 1.87005C33.3026 2.67313 34.9247 3.22367 36.0868 3.5746C36.6679 3.75058 37.1368 3.87699 37.467 3.96143C37.6324 4.00377 37.7667 4.03476 37.8598 4.05697C37.9053 4.06769 37.9429 4.07737 37.9698 4.08344C37.9829 4.08667 37.9942 4.09028 38.0026 4.0926L38.0205 4.0926C38.8785 4.27698 39.7709 4.01385 40.3914 3.39333C40.9342 2.85053 41.2055 2.10064 41.1411 1.34662L41.0903 1.02229L41.0903 1.00447ZM11.164-41.6037L11.1847-41.6068C11.1934-41.6086 11.2039-41.6126 11.2173-41.6159C11.2445-41.6218 11.2815-41.6316 11.3275-41.6423C11.4206-41.6642 11.555-41.6954 11.7201-41.7378C12.0503-41.8219 12.52-41.949 13.1005-42.1243C14.2624-42.4755 15.8827-43.0232 17.7529-43.826C21.478-45.4245 26.294-48.0718 30.4584-52.2358C34.6226-56.3997 37.2695-61.2161 38.8682-64.9412C39.6712-66.8124 40.2216-68.4348 40.5728-69.5966C40.7485-70.1778 40.8752-70.6468 40.9597-70.977C41.0017-71.1422 41.033-71.2766 41.0548-71.3695C41.0653-71.4154 41.0756-71.4527 41.0813-71.4798C41.0845-71.493 41.0884-71.5041 41.0903-71.5123L41.0903-71.5303L41.1411-71.8548C41.2055-72.6083 40.9342-73.3585 40.3914-73.9012C39.7709-74.5217 38.8785-74.7849 38.0205-74.6004L38.0026-74.6004C37.9942-74.5985 37.9829-74.5943 37.9698-74.5914C37.9429-74.5854 37.9053-74.5754 37.8598-74.5646C37.7667-74.5428 37.6324-74.5118 37.467-74.4694C37.1368-74.3854 36.6679-74.2586 36.0868-74.0827C34.9247-73.7313 33.3026-73.1813 31.4313-72.3782C27.706-70.7796 22.8871-68.1355 18.7229-63.9713C14.5588-59.8069 11.9144-54.988 10.316-51.263C9.5135-49.3924 8.9658-47.7723 8.61455-46.6102C8.43889-46.0297 8.3119-45.5604 8.22772-45.2301C8.1857-45.0648 8.15439-44.9307 8.13257-44.8373C8.12178-44.7915 8.11178-44.7545 8.10571-44.7274C8.10287-44.7141 8.09861-44.7032 8.0968-44.6945C8.09603-44.6903 8.09758-44.6859 8.0968-44.6827L8.0939-44.6738C7.9101-43.8165 8.17278-42.9228 8.79304-42.3028C9.41305-41.6828 10.3065-41.4199 11.164-41.6037ZM81.3656-28.904L81.3449-28.901C81.3362-28.8992 81.3254-28.8954 81.312-28.8925C81.2849-28.8863 81.2479-28.8764 81.2019-28.8657C81.1088-28.8437 80.9744-28.8122 80.8093-28.7704C80.479-28.6861 80.0094-28.559 79.4291-28.3837C78.2672-28.0321 76.6467-27.4847 74.7764-26.6818C71.0513-25.0838 66.2354-22.4366 62.071-18.2724C57.9068-14.1083 55.2601-9.29194 53.6614-5.56689C52.8584-3.69526 52.3083-2.07359 51.9568-0.911057C51.7808-0.330563 51.6541 0.138635 51.5697 0.469166C51.5277 0.634431 51.4966 0.76858 51.4745 0.86167C51.4637 0.907635 51.4541 0.944819 51.448 0.971933C51.4448 0.984715 51.4409 0.995948 51.4388 1.00447L51.4388 1.02229L51.3885 1.34662C51.3239 2.10064 51.5952 2.85053 52.1379 3.39333C52.7587 4.01385 53.6509 4.27698 54.5091 4.0926L54.5268 4.0926C54.5354 4.09028 54.5467 4.08667 54.5596 4.08344C54.5867 4.07737 54.6243 4.06769 54.6698 4.05697C54.7628 4.03476 54.8972 4.00377 55.0623 3.96143C55.3926 3.87699 55.8614 3.75058 56.4425 3.5746C57.605 3.22367 59.2268 2.67313 61.0981 1.87005C64.8234 0.271364 69.6423-2.37249 73.8067-6.53666C77.9709-10.7011 80.615-15.52 82.2134-19.2452C83.0158-21.1155 83.5638-22.7357 83.9151-23.8976C84.0903-24.4785 84.2175-24.9476 84.3019-25.2781C84.3437-25.4429 84.375-25.5774 84.3971-25.6704C84.4079-25.7166 84.4178-25.7535 84.4239-25.7809C84.4268-25.7941 84.4307-25.8048 84.4329-25.8134C84.4336-25.8179 84.432-25.8222 84.4329-25.825L84.4354-25.8342C84.6192-26.6914 84.3566-27.5849 83.7365-28.2054C83.1163-28.8251 82.2228-29.088 81.3656-28.904Z"/>
   <path class="monochrome-1 multicolor-1:secondaryLabelColor hierarchical-1:secondary SFSymbolsPreviewWireframe" d="M62.92-30.6428C64.3601-31.2279 65.6743-31.6849 66.6261-31.9933C67.0996-32.1466 67.4814-32.2612 67.7413-32.3383C67.8709-32.3766 67.9708-32.4083 68.0357-32.4266C68.0673-32.4355 68.0923-32.4393 68.1072-32.4434C68.1146-32.4455 68.1212-32.4469 68.1241-32.4477L68.5277-32.595C69.4306-33.0119 70.0257-33.9225 70.0257-34.9424C70.0257-36.1072 69.2471-37.1297 68.1241-37.4372L68.1072-37.4414C68.0923-37.4455 68.0673-37.4493 68.0357-37.4582C67.9708-37.4766 67.8709-37.5081 67.7413-37.5465C67.4814-37.6236 67.0996-37.7382 66.6261-37.8915C65.6743-38.1999 64.3601-38.6571 62.92-39.242C59.9425-40.4515 56.7841-42.0751 54.9687-43.8907C53.1529-45.7063 51.5293-48.8646 50.32-51.8419C49.7349-53.282 49.278-54.5963 48.9695-55.5484C48.8162-56.0216 48.7016-56.4032 48.6245-56.6633C48.5862-56.7926 48.5546-56.8928 48.5362-56.9576C48.5273-56.989 48.5236-57.0145 48.5194-57.0292L48.5152-57.0461C48.2076-58.1695 47.185-58.9475 46.0204-58.9475C44.8556-58.9475 43.833-58.1695 43.5257-57.0461L43.5215-57.0292C43.5173-57.0145 43.5136-56.989 43.5046-56.9576C43.4862-56.8928 43.4546-56.7926 43.4163-56.6633C43.3392-56.4032 43.2246-56.0216 43.0713-55.5484C42.7629-54.5963 42.3056-53.282 41.7208-51.8419C40.5113-48.8646 38.8877-45.7063 37.0721-43.8907C35.2565-42.0751 32.0983-40.4515 29.1209-39.242C27.6807-38.6571 26.3665-38.1999 25.4145-37.8915C24.9411-37.7382 24.5596-37.6236 24.2996-37.5465C24.1702-37.5081 24.0701-37.4766 24.0051-37.4582C23.9736-37.4493 23.9483-37.4455 23.9336-37.4414L23.9167-37.4372C22.7932-37.1297 22.0152-36.1072 22.0152-34.9424C22.0152-33.7777 22.7932-32.7553 23.9167-32.4477L23.9336-32.4434C23.9483-32.4393 23.9736-32.4355 24.0051-32.4266C24.0701-32.4083 24.1702-32.3766 24.2996-32.3383C24.5596-32.2612 24.9411-32.1466 25.4145-31.9933C26.3665-31.6849 27.6807-31.2279 29.1209-30.6428C32.0983-29.4335 35.2565-27.8099 37.0721-25.9941C38.8877-24.1785 40.5113-21.0203 41.7208-18.0429C42.3056-16.6027 42.7629-15.2886 43.0713-14.3368C43.2246-13.8632 43.3392-13.4813 43.4163-13.2215C43.4546-13.0919 43.4862-12.9919 43.5046-12.9271C43.5136-12.8956 43.5173-12.8706 43.5215-12.8556C43.5235-12.8482 43.5249-12.8417 43.5257-12.8388L43.6729-12.4352C44.0899-11.5322 45.0005-10.9372 46.0204-10.9372C47.185-10.9372 48.2076-11.7153 48.5152-12.8388L48.5194-12.8556C48.5236-12.8706 48.5273-12.8956 48.5362-12.9271C48.5546-12.9919 48.5862-13.0919 48.6245-13.2215C48.7016-13.4813 48.8162-13.8632 48.9695-14.3368C49.278-15.2886 49.7349-16.6027 50.32-18.0429C51.5293-21.0203 53.1529-24.1785 54.9687-25.9941C56.7841-27.8099 59.9425-29.4335 62.92-30.6428Z"/>
  </g>
  <g id="Ultralight-S" transform="matrix(1 0 0 1 515.649 696)">
   <path class="monochrome-0 multicolor-0:tintColor hierarchical-0:primary SFSymbolsPreviewWireframe" d="M48.9479-69.5344C48.95-69.5266 48.9537-69.5161 48.9567-69.5037C48.9624-69.478 48.9716-69.4427 48.9818-69.3994C49.0026-69.3115 49.032-69.1844 49.0718-69.0283C49.1516-68.7161 49.2714-68.2727 49.4377-67.7231C49.7701-66.6248 50.2901-65.0908 51.0493-63.3218C52.5608-59.7998 55.0632-55.2462 59.0002-51.3094C62.9374-47.3726 67.4907-44.8696 71.0125-43.3584C72.7808-42.5994 74.3129-42.0815 75.4114-41.7495C75.9601-41.5837 76.4041-41.4636 76.7163-41.384C76.8724-41.344 76.9995-41.3145 77.0875-41.2938C77.131-41.2837 77.166-41.2744 77.1916-41.2688C77.2043-41.2657 77.2145-41.262 77.2227-41.2603L77.2423-41.2573C78.0527-41.0835 78.8975-41.332 79.4839-41.9182C80.0701-42.5044 80.3184-43.3494 80.1447-44.1599L80.1422-44.1683C80.1414-44.1714 80.1429-44.1755 80.1422-44.1794C80.1402-44.1877 80.1365-44.198 80.1337-44.2106C80.128-44.2362 80.1186-44.2712 80.1084-44.3145C80.0875-44.4028 80.0579-44.5295 80.0184-44.6859C79.9386-44.9982 79.8183-45.4419 79.6527-45.9907C79.3206-47.0894 78.8025-48.6211 78.0438-50.3896C76.5326-53.9115 74.0327-58.4675 70.0957-62.4048C66.1584-66.3418 61.6025-68.8417 58.0804-70.353C56.3111-71.1123 54.7778-71.6323 53.6787-71.9646C53.1293-72.1309 52.6861-72.2507 52.3738-72.3302C52.2177-72.3702 52.0907-72.3995 52.0027-72.4202C51.9597-72.4304 51.9241-72.4398 51.8986-72.4456C51.8864-72.4482 51.8757-72.4523 51.8675-72.454L51.8508-72.454C51.0394-72.6284 50.1959-72.3796 49.6089-71.793C49.0959-71.2799 48.8394-70.5706 48.9005-69.8582L48.9479-69.5514L48.9479-69.5344ZM39.164-0.973389C39.1622-0.981445 39.1585-0.992065 39.1555-1.00415C39.1501-1.02979 39.1404-1.06494 39.1304-1.1084C39.1098-1.19641 39.0802-1.32324 39.0405-1.47949C38.9606-1.79199 38.8408-2.2356 38.6747-2.78442C38.3427-3.88354 37.8223-5.41675 37.0631-7.18628C35.5516-10.7081 33.0491-15.2617 29.1121-19.1987C25.1748-23.1357 20.6215-25.6385 17.0997-27.1494C15.3314-27.9084 13.7996-28.426 12.701-28.7584C12.1522-28.9242 11.7081-29.0443 11.3959-29.124C11.2398-29.1636 11.1127-29.1934 11.0248-29.2141C10.9813-29.2242 10.9462-29.2336 10.9206-29.2395C10.9079-29.2422 10.8979-29.2458 10.8898-29.2476L10.8701-29.2504C10.0594-29.4243 9.21472-29.1758 8.62854-28.5898C8.04211-28.0032 7.79376-27.1584 7.96753-26.348L7.97028-26.3394C7.97101-26.3367 7.96954-26.3326 7.97028-26.3284C7.97199-26.3202 7.97601-26.3101 7.9787-26.2976C7.98444-26.2717 7.9939-26.2368 8.00409-26.1931C8.02472-26.1052 8.05432-25.978 8.09406-25.8223C8.17365-25.5098 8.2937-25.0663 8.45978-24.5171C8.79187-23.4186 9.30969-21.8867 10.0684-20.1184C11.5797-16.5964 14.0798-12.0404 18.0167-8.10315C21.9537-4.16614 26.5098-1.6665 30.0319-0.155029C31.8011 0.604248 33.3347 1.12476 34.4335 1.45654C34.9828 1.62292 35.4261 1.74243 35.7383 1.82227C35.8947 1.8623 36.0217 1.8916 36.1097 1.9126C36.1528 1.92273 36.1883 1.93188 36.2137 1.93762C36.2261 1.94067 36.2368 1.94409 36.2448 1.94629L36.2617 1.94629C37.0728 2.12061 37.9166 1.87183 38.5032 1.28516C39.0164 0.771973 39.2729 0.0629883 39.212-0.649902L39.164-0.956543L39.164-0.973389ZM10.8701-41.2573L10.8898-41.2603C10.8979-41.262 10.9079-41.2657 10.9206-41.2688C10.9462-41.2744 10.9813-41.2837 11.0248-41.2938C11.1127-41.3145 11.2398-41.344 11.3959-41.384C11.7081-41.4636 12.1522-41.5837 12.701-41.7495C13.7996-42.0815 15.3314-42.5994 17.0997-43.3584C20.6215-44.8696 25.1748-47.3726 29.1121-51.3094C33.0491-55.2462 35.5516-59.7998 37.0631-63.3218C37.8223-65.0908 38.3427-66.6248 38.6747-67.7231C38.8408-68.2727 38.9606-68.7161 39.0405-69.0283C39.0802-69.1844 39.1098-69.3115 39.1304-69.3994C39.1404-69.4427 39.1501-69.478 39.1555-69.5037C39.1585-69.5161 39.1622-69.5266 39.164-69.5344L39.164-69.5514L39.212-69.8582C39.2729-70.5706 39.0164-71.2799 38.5032-71.793C37.9166-72.3796 37.0728-72.6284 36.2617-72.454L36.2448-72.454C36.2368-72.4523 36.2261-72.4482 36.2137-72.4456C36.1883-72.4398 36.1528-72.4304 36.1097-72.4202C36.0217-72.3995 35.8947-72.3702 35.7383-72.3302C35.4261-72.2507 34.9828-72.1309 34.4335-71.9646C33.3347-71.6323 31.8011-71.1123 30.0319-70.353C26.5098-68.8417 21.9537-66.3418 18.0167-62.4048C14.0798-58.4675 11.5797-53.9115 10.0684-50.3896C9.30969-48.6211 8.79187-47.0894 8.45978-45.9907C8.2937-45.4419 8.17365-44.9982 8.09406-44.6859C8.05432-44.5295 8.02472-44.4028 8.00409-44.3145C7.9939-44.2712 7.98444-44.2362 7.9787-44.2106C7.97601-44.198 7.97198-44.1877 7.97028-44.1794C7.96954-44.1755 7.97101-44.1714 7.97028-44.1683L7.96753-44.1599C7.79376-43.3494 8.04211-42.5044 8.62854-41.9182C9.21472-41.332 10.0594-41.0835 10.8701-41.2573ZM77.2423-29.2504L77.2227-29.2476C77.2145-29.2458 77.2043-29.2422 77.1916-29.2395C77.166-29.2336 77.131-29.2242 77.0875-29.2141C76.9995-29.1934 76.8724-29.1636 76.7163-29.124C76.4041-29.0443 75.9601-28.9242 75.4114-28.7584C74.3129-28.426 72.7808-27.9084 71.0125-27.1494C67.4907-25.6385 62.9374-23.1357 59.0002-19.1987C55.0632-15.2617 52.5608-10.7081 51.0493-7.18628C50.2901-5.41675 49.7701-3.88354 49.4377-2.78442C49.2714-2.2356 49.1516-1.79199 49.0718-1.47949C49.032-1.32324 49.0026-1.19641 48.9818-1.1084C48.9716-1.06494 48.9624-1.02979 48.9567-1.00415C48.9537-0.992065 48.95-0.981445 48.9479-0.973389L48.9479-0.956543L48.9005-0.649902C48.8394 0.0629882 49.0959 0.771973 49.6089 1.28516C50.1959 1.87183 51.0394 2.12061 51.8508 1.94629L51.8675 1.94629C51.8757 1.94409 51.8864 1.94067 51.8986 1.93762C51.9241 1.93188 51.9597 1.92273 52.0027 1.9126C52.0907 1.8916 52.2177 1.8623 52.3738 1.82227C52.6861 1.74243 53.1293 1.62292 53.6787 1.45654C54.7778 1.12476 56.3111 0.604248 58.0804-0.155029C61.6025-1.6665 66.1584-4.16614 70.0957-8.10315C74.0327-12.0404 76.5326-16.5964 78.0438-20.1184C78.8025-21.8867 79.3206-23.4186 79.6527-24.5171C79.8183-25.0663 79.9386-25.5098 80.0184-25.8223C80.0579-25.978 80.0875-26.1052 80.1084-26.1931C80.1186-26.2368 80.128-26.2717 80.1337-26.2976C80.1365-26.3101 80.1402-26.3202 80.1422-26.3284C80.1429-26.3326 80.1414-26.3367 80.1422-26.3394L80.1447-26.348C80.3184-27.1584 80.0701-28.0032 79.4839-28.5898C78.8975-29.1758 78.0527-29.4243 77.2423-29.2504Z"/>
   <path class="monochrome-1 multicolor-1:secondaryLabelColor hierarchical-1:secondary SFSymbolsPreviewWireframe" d="M59.8029-30.8943C61.1644-31.4475 62.4069-31.8795 63.3068-32.1711C63.7545-32.316 64.1155-32.4244 64.3611-32.4973C64.4837-32.5336 64.5781-32.5635 64.6395-32.5808C64.6694-32.5892 64.693-32.5928 64.7072-32.5967C64.7141-32.5986 64.7203-32.6 64.7231-32.6007L65.1047-32.74C65.9583-33.1342 66.5209-33.9951 66.5209-34.9594C66.5209-36.0607 65.7849-37.0273 64.7231-37.3181L64.7072-37.322C64.693-37.3259 64.6694-37.3295 64.6395-37.3379C64.5781-37.3553 64.4837-37.3851 64.3611-37.4214C64.1155-37.4943 63.7545-37.6027 63.3068-37.7476C62.4069-38.0392 61.1644-38.4714 59.8029-39.0244C56.9878-40.168 54.0016-41.703 52.2853-43.4196C50.5685-45.1361 49.0335-48.1221 47.8902-50.937C47.337-52.2986 46.905-53.5411 46.6134-54.4413C46.4684-54.8887 46.3601-55.2495 46.2872-55.4954C46.251-55.6177 46.2211-55.7124 46.2037-55.7737C46.1953-55.8033 46.1918-55.8274 46.1878-55.8413L46.1838-55.8573C45.893-56.9194 44.9262-57.655 43.8251-57.655C42.7239-57.655 41.7571-56.9194 41.4665-55.8573L41.4625-55.8413C41.4586-55.8274 41.4551-55.8033 41.4466-55.7737C41.4292-55.7124 41.3994-55.6177 41.3631-55.4954C41.2902-55.2495 41.1818-54.8887 41.0369-54.4413C40.7453-53.5411 40.313-52.2986 39.7601-50.937C38.6166-48.1221 37.0815-45.1361 35.365-43.4196C33.6484-41.703 30.6625-40.168 27.8475-39.0244C26.4859-38.4714 25.2434-38.0392 24.3433-37.7476C23.8958-37.6027 23.535-37.4943 23.2892-37.4214C23.1669-37.3851 23.0722-37.3553 23.0108-37.3379C22.981-37.3295 22.9571-37.3259 22.9432-37.322L22.9272-37.3181C21.865-37.0273 21.1294-36.0607 21.1294-34.9594C21.1294-33.8582 21.865-32.8916 22.9272-32.6007L22.9432-32.5967C22.9571-32.5928 22.981-32.5892 23.0108-32.5808C23.0722-32.5635 23.1669-32.5336 23.2892-32.4973C23.535-32.4244 23.8958-32.316 24.3433-32.1711C25.2434-31.8795 26.4859-31.4475 27.8475-30.8943C30.6625-29.751 33.6484-28.2159 35.365-26.4991C37.0815-24.7826 38.6166-21.7968 39.7601-18.9817C40.313-17.6201 40.7453-16.3777 41.0369-15.4778C41.1818-15.03 41.2902-14.6689 41.3631-14.4233C41.3994-14.3008 41.4292-14.2063 41.4466-14.145C41.4551-14.1152 41.4586-14.0916 41.4625-14.0774C41.4645-14.0704 41.4658-14.0642 41.4665-14.0615L41.6057-13.6799C42-12.8262 42.8608-12.2637 43.8251-12.2637C44.9262-12.2637 45.893-12.9993 46.1838-14.0615L46.1878-14.0774C46.1918-14.0916 46.1953-14.1152 46.2037-14.145C46.2211-14.2063 46.251-14.3008 46.2872-14.4233C46.3601-14.6689 46.4684-15.03 46.6134-15.4778C46.905-16.3777 47.337-17.6201 47.8902-18.9817C49.0335-21.7968 50.5685-24.7826 52.2853-26.4991C54.0016-28.2159 56.9878-29.751 59.8029-30.8943Z"/>
  </g>
 </g>
</svg>
