<?xml version="1.0" encoding="UTF-8"?>
<!--Generator: Apple Native CoreSVG 341-->
<!DOCTYPE svg
PUBLIC "-//W3C//DTD SVG 1.1//EN"
       "http://www.w3.org/Graphics/SVG/1.1/DTD/svg11.dtd">
<svg version="1.1" xmlns="http://www.w3.org/2000/svg" xmlns:xlink="http://www.w3.org/1999/xlink" viewBox="0 0 3300 2200">
 <!--glyph: "", point size: 100.0, font version: "21.0d6e2", template writer version: "138.0.0"-->
 <style>.defaults {-sfsymbols-variable-value-mode:color;-sfsymbols-draw-reverses-motion-groups:true}

.monochrome-0 {-sfsymbols-motion-group:1;-sfsymbols-layer-tags:-16b38194c3703521}
.monochrome-1 {-sfsymbols-motion-group:0;-sfsymbols-layer-tags:-16b38194c3703521}

.multicolor-0:tintColor {-sfsymbols-motion-group:1;-sfsymbols-layer-tags:-16b38194c3703521}
.multicolor-1:tintColor {-sfsymbols-motion-group:0;-sfsymbols-layer-tags:-16b38194c3703521}

.hierarchical-0:primary {-sfsymbols-motion-group:1;-sfsymbols-layer-tags:-16b38194c3703521}
.hierarchical-1:secondary {-sfsymbols-motion-group:0;-sfsymbols-layer-tags:-16b38194c3703521}

.SFSymbolsPreviewWireframe {fill:none;opacity:1.0;stroke:black;stroke-width:0.5}
</style>
 <g id="Notes">
  <rect height="2200" id="artboard" style="fill:white;opacity:1" width="3300" x="0" y="0"/>
  <line style="fill:none;stroke:black;opacity:1;stroke-width:0.5;" x1="263" x2="3036" y1="292" y2="292"/>
  <text style="stroke:none;fill:black;font-family:sans-serif;font-size:13;font-weight:bold;" transform="matrix(1 0 0 1 263 322)">Weight/Scale Variations</text>
  <text style="stroke:none;fill:black;font-family:sans-serif;font-size:13;text-anchor:middle;" transform="matrix(1 0 0 1 559.711 322)">Ultralight</text>
  <text style="stroke:none;fill:black;font-family:sans-serif;font-size:13;text-anchor:middle;" transform="matrix(1 0 0 1 856.422 322)">Thin</text>
  <text style="stroke:none;fill:black;font-family:sans-serif;font-size:13;text-anchor:middle;" transform="matrix(1 0 0 1 1153.13 322)">Light</text>
  <text style="stroke:none;fill:black;font-family:sans-serif;font-size:13;text-anchor:middle;" transform="matrix(1 0 0 1 1449.84 322)">Regular</text>
  <text style="stroke:none;fill:black;font-family:sans-serif;font-size:13;text-anchor:middle;" transform="matrix(1 0 0 1 1746.56 322)">Medium</text>
  <text style="stroke:none;fill:black;font-family:sans-serif;font-size:13;text-anchor:middle;" transform="matrix(1 0 0 1 2043.27 322)">Semibold</text>
  <text style="stroke:none;fill:black;font-family:sans-serif;font-size:13;text-anchor:middle;" transform="matrix(1 0 0 1 2339.98 322)">Bold</text>
  <text style="stroke:none;fill:black;font-family:sans-serif;font-size:13;text-anchor:middle;" transform="matrix(1 0 0 1 2636.69 322)">Heavy</text>
  <text style="stroke:none;fill:black;font-family:sans-serif;font-size:13;text-anchor:middle;" transform="matrix(1 0 0 1 2933.4 322)">Black</text>
  <line style="fill:none;stroke:black;opacity:1;stroke-width:0.5;" x1="263" x2="3036" y1="1903" y2="1903"/>
  <g transform="matrix(0.2 0 0 0.2 263 1933)">
   <path d="m46.2402 4.15039c21.7773 0 39.4531-17.627 39.4531-39.4043s-17.6758-39.4043-39.4531-39.4043c-21.7285 0-39.4043 17.627-39.4043 39.4043s17.6758 39.4043 39.4043 39.4043Zm0-7.42188c-17.6758 0-31.9336-14.3066-31.9336-31.9824s14.2578-31.9824 31.9336-31.9824 31.9824 14.3066 31.9824 31.9824-14.3066 31.9824-31.9824 31.9824Zm3.61328-17.7734v-28.4668c0-2.24609-1.46484-3.75977-3.71094-3.75977-2.14844 0-3.61328 1.51367-3.61328 3.75977v28.4668c0 2.19727 1.46484 3.71094 3.61328 3.71094 2.24609 0 3.71094-1.51367 3.71094-3.71094Zm-17.8223-10.5957h28.418c2.19727 0 3.71094-1.46484 3.71094-3.61328 0-2.19727-1.51367-3.71094-3.71094-3.71094h-28.418c-2.24609 0-3.75977 1.51367-3.75977 3.71094 0 2.14844 1.51367 3.61328 3.75977 3.61328Z"/>
  </g>
  <g transform="matrix(0.2 0 0 0.2 281.506 1933)">
   <path d="m58.5449 14.5508c27.4902 0 49.8047-22.3145 49.8047-49.8047s-22.3145-49.8047-49.8047-49.8047-49.8047 22.3145-49.8047 49.8047 22.3145 49.8047 49.8047 49.8047Zm0-8.30078c-22.9492 0-41.5039-18.5547-41.5039-41.5039s18.5547-41.5039 41.5039-41.5039 41.5039 18.5547 41.5039 41.5039-18.5547 41.5039-41.5039 41.5039Zm4.05273-23.0957v-36.9141c0-2.49023-1.70898-4.19922-4.15039-4.19922-2.39258 0-4.05273 1.70898-4.05273 4.19922v36.9141c0 2.44141 1.66016 4.15039 4.05273 4.15039 2.44141 0 4.15039-1.66016 4.15039-4.15039Zm-22.5586-14.4043h36.9629c2.44141 0 4.15039-1.61133 4.15039-4.00391 0-2.44141-1.70898-4.15039-4.15039-4.15039h-36.9629c-2.49023 0-4.15039 1.70898-4.15039 4.15039 0 2.39258 1.66016 4.00391 4.15039 4.00391Z"/>
  </g>
  <g transform="matrix(0.2 0 0 0.2 304.924 1933)">
   <path d="m74.8535 28.3203c35.1074 0 63.623-28.4668 63.623-63.5742s-28.5156-63.623-63.623-63.623-63.5742 28.5156-63.5742 63.623 28.4668 63.5742 63.5742 63.5742Zm0-9.08203c-30.127 0-54.4922-24.3652-54.4922-54.4922s24.3652-54.4922 54.4922-54.4922 54.4922 24.3652 54.4922 54.4922-24.3652 54.4922-54.4922 54.4922Zm4.44336-30.3223v-48.4863c0-2.73438-1.85547-4.63867-4.54102-4.63867-2.58789 0-4.44336 1.9043-4.44336 4.63867v48.4863c0 2.68555 1.85547 4.58984 4.44336 4.58984 2.68555 0 4.54102-1.85547 4.54102-4.58984Zm-28.7109-19.7754h48.4863c2.68555 0 4.58984-1.80664 4.58984-4.39453 0-2.73438-1.85547-4.58984-4.58984-4.58984h-48.4863c-2.73438 0-4.58984 1.85547-4.58984 4.58984 0 2.58789 1.85547 4.39453 4.58984 4.39453Z"/>
  </g>
  <text style="stroke:none;fill:black;font-family:sans-serif;font-size:13;font-weight:bold;" transform="matrix(1 0 0 1 263 1953)">Design Variations</text>
  <text style="stroke:none;fill:black;font-family:sans-serif;font-size:13;" transform="matrix(1 0 0 1 263 1971)">Symbols are supported in up to nine weights and three scales.</text>
  <text style="stroke:none;fill:black;font-family:sans-serif;font-size:13;" transform="matrix(1 0 0 1 263 1989)">For optimal layout with text and other symbols, vertically align</text>
  <text style="stroke:none;fill:black;font-family:sans-serif;font-size:13;" transform="matrix(1 0 0 1 263 2007)">symbols with the adjacent text.</text>
  <line style="fill:none;stroke:#00AEEF;stroke-width:0.5;opacity:1.0;" x1="776" x2="776" y1="1919" y2="1933"/>
  <g transform="matrix(0.2 0 0 0.2 776 1933)">
   <path d="m16.5527 0.78125c2.58789 0 3.85742-0.976562 4.78516-3.71094l20.5566-57.5195h0.244141l20.6055 57.5195c0.927734 2.73438 2.19727 3.71094 4.73633 3.71094 2.58789 0 4.24805-1.5625 4.24805-4.00391 0-0.830078-0.146484-1.61133-0.537109-2.63672l-22.9004-60.9863c-1.12305-2.97852-3.125-4.49219-6.25-4.49219-3.02734 0-5.07812 1.46484-6.15234 4.44336l-22.9004 61.084c-0.390625 1.02539-0.537109 1.80664-0.537109 2.63672 0 2.44141 1.5625 3.95508 4.10156 3.95508Zm10.2051-20.9473h30.6641c2.00195 0 3.66211-1.66016 3.66211-3.66211 0-2.05078-1.66016-3.66211-3.66211-3.66211h-30.6641c-2.00195 0-3.66211 1.61133-3.66211 3.66211 0 2.00195 1.66016 3.66211 3.66211 3.66211Z"/>
  </g>
  <line style="fill:none;stroke:#00AEEF;stroke-width:0.5;opacity:1.0;" x1="792.836" x2="792.836" y1="1919" y2="1933"/>
  <text style="stroke:none;fill:black;font-family:sans-serif;font-size:13;font-weight:bold;" transform="matrix(1 0 0 1 776 1953)">Margins</text>
  <text style="stroke:none;fill:black;font-family:sans-serif;font-size:13;" transform="matrix(1 0 0 1 776 1971)">Leading and trailing margins on the left and right side of each symbol</text>
  <text style="stroke:none;fill:black;font-family:sans-serif;font-size:13;" transform="matrix(1 0 0 1 776 1989)">can be adjusted by modifying the x-location of the margin guidelines.</text>
  <text style="stroke:none;fill:black;font-family:sans-serif;font-size:13;" transform="matrix(1 0 0 1 776 2007)">Modifications are automatically applied proportionally to all</text>
  <text style="stroke:none;fill:black;font-family:sans-serif;font-size:13;" transform="matrix(1 0 0 1 776 2025)">scales and weights.</text>
  <g transform="matrix(0.2 0 0 0.2 1289 1933)">
   <path d="m14.209 13.1348 7.86133 7.86133c4.29688 4.39453 9.32617 4.10156 13.8672-1.02539l60.6934-68.2129-4.88281-4.88281-60.2539 67.6758c-1.80664 1.95312-3.4668 2.44141-5.81055 0.0976562l-5.17578-5.12695c-2.29492-2.29492-1.80664-3.95508 0.195312-5.81055l67.4805-62.1582-4.88281-4.83398-68.0664 62.5977c-4.98047 4.58984-5.32227 9.47266-1.02539 13.8184Zm44.873-97.4609c-2.05078 2.00195-2.24609 4.88281-1.07422 6.78711 1.12305 1.80664 3.4668 3.02734 6.5918 2.24609 5.85938-1.66016 12.5977-2.39258 18.8965 0.927734l-2.68555 7.12891c-1.61133 4.00391-0.732422 6.88477 1.70898 9.42383l10.2539 10.3027c2.34375 2.39258 4.54102 2.44141 7.08008 1.95312l4.44336-0.732422 2.58789 2.53906-0.195312 2.24609c-0.0976562 2.29492 0.537109 4.29688 2.7832 6.49414l3.36914 3.32031c2.29492 2.29492 5.51758 2.49023 7.8125 0.195312l12.9883-13.0371c2.29492-2.34375 2.14844-5.37109-0.195312-7.66602l-3.41797-3.41797c-2.19727-2.19727-4.05273-3.02734-6.34766-2.88086l-2.34375 0.244141-2.44141-2.44141 1.02539-4.6875c0.634766-2.73438-0.244141-4.98047-2.88086-7.61719l-11.2793-11.1816c-12.9395-12.8418-35.5957-11.0352-46.6797-0.146484Zm7.08008 2.05078c8.78906-6.39648 25.9766-5.66406 33.6914 1.95312l12.3047 12.207c1.02539 1.02539 1.2207 1.80664 0.927734 3.32031l-1.46484 6.64062 6.73828 6.68945 4.39453-0.244141c1.12305-0.0488281 1.51367 0.0488281 2.34375 0.878906l2.53906 2.49023-10.8398 10.8398-2.49023-2.49023c-0.830078-0.878906-0.976562-1.2207-0.927734-2.39258l0.292969-4.3457-6.68945-6.73828-6.83594 1.17188c-1.41602 0.292969-2.05078 0.195312-3.17383-0.878906l-8.93555-8.88672c-1.07422-1.02539-1.17188-1.70898-0.488281-3.36914l4.58984-11.4746c-6.10352-6.34766-17.041-7.51953-25.5859-4.58984-0.683594 0.244141-0.927734-0.390625-0.390625-0.78125Z"/>
  </g>
  <text style="stroke:none;fill:black;font-family:sans-serif;font-size:13;font-weight:bold;" transform="matrix(1 0 0 1 1289 1953)">Exporting</text>
  <text style="stroke:none;fill:black;font-family:sans-serif;font-size:13;" transform="matrix(1 0 0 1 1289 1971)">Symbols should be outlined when exporting to ensure the</text>
  <text style="stroke:none;fill:black;font-family:sans-serif;font-size:13;" transform="matrix(1 0 0 1 1289 1989)">design is preserved when submitting to Xcode.</text>
  <text id="template-version" style="stroke:none;fill:black;font-family:sans-serif;font-size:13;text-anchor:end;" transform="matrix(1 0 0 1 3036 1933)">Template v.7.0</text>
  <text style="stroke:none;fill:black;font-family:sans-serif;font-size:13;text-anchor:end;" transform="matrix(1 0 0 1 3036 1951)">Requires Xcode 17 or greater</text>
  <text id="descriptive-name" style="stroke:none;fill:black;font-family:sans-serif;font-size:13;text-anchor:end;" transform="matrix(1 0 0 1 3036 1969)">Generated from ia-euria</text>
  <text style="stroke:none;fill:black;font-family:sans-serif;font-size:13;text-anchor:end;" transform="matrix(1 0 0 1 3036 1987)">Typeset at 100.0 points</text>
  <text style="stroke:none;fill:black;font-family:sans-serif;font-size:13;" transform="matrix(1 0 0 1 263 726)">Small</text>
  <text style="stroke:none;fill:black;font-family:sans-serif;font-size:13;" transform="matrix(1 0 0 1 263 1156)">Medium</text>
  <text style="stroke:none;fill:black;font-family:sans-serif;font-size:13;" transform="matrix(1 0 0 1 263 1586)">Large</text>
 </g>
 <g id="Guides">
  <g id="H-reference" style="fill:#27AAE1;stroke:none;" transform="matrix(1 0 0 1 339 696)">
   <path d="M0.993654 0L3.63775 0L29.3281-67.1323L30.0303-67.1323L30.0303-70.459L28.1226-70.459ZM11.6885-24.4799L46.9815-24.4799L46.2315-26.7285L12.4385-26.7285ZM55.1196 0L57.7637 0L30.6382-70.459L29.4326-70.459L29.4326-67.1323Z"/>
  </g>
  <line id="Baseline-S" style="fill:none;stroke:#27AAE1;opacity:1;stroke-width:0.5;" x1="263" x2="3036" y1="696" y2="696"/>
  <line id="Capline-S" style="fill:none;stroke:#27AAE1;opacity:1;stroke-width:0.5;" x1="263" x2="3036" y1="625.541" y2="625.541"/>
  <g id="H-reference" style="fill:#27AAE1;stroke:none;" transform="matrix(1 0 0 1 339 1126)">
   <path d="M0.993654 0L3.63775 0L29.3281-67.1323L30.0303-67.1323L30.0303-70.459L28.1226-70.459ZM11.6885-24.4799L46.9815-24.4799L46.2315-26.7285L12.4385-26.7285ZM55.1196 0L57.7637 0L30.6382-70.459L29.4326-70.459L29.4326-67.1323Z"/>
  </g>
  <line id="Baseline-M" style="fill:none;stroke:#27AAE1;opacity:1;stroke-width:0.5;" x1="263" x2="3036" y1="1126" y2="1126"/>
  <line id="Capline-M" style="fill:none;stroke:#27AAE1;opacity:1;stroke-width:0.5;" x1="263" x2="3036" y1="1055.54" y2="1055.54"/>
  <g id="H-reference" style="fill:#27AAE1;stroke:none;" transform="matrix(1 0 0 1 339 1556)">
   <path d="M0.993654 0L3.63775 0L29.3281-67.1323L30.0303-67.1323L30.0303-70.459L28.1226-70.459ZM11.6885-24.4799L46.9815-24.4799L46.2315-26.7285L12.4385-26.7285ZM55.1196 0L57.7637 0L30.6382-70.459L29.4326-70.459L29.4326-67.1323Z"/>
  </g>
  <line id="Baseline-L" style="fill:none;stroke:#27AAE1;opacity:1;stroke-width:0.5;" x1="263" x2="3036" y1="1556" y2="1556"/>
  <line id="Capline-L" style="fill:none;stroke:#27AAE1;opacity:1;stroke-width:0.5;" x1="263" x2="3036" y1="1485.54" y2="1485.54"/>
  <line id="right-margin-Black-S" style="fill:none;stroke:#00AEEF;stroke-width:0.5;opacity:1.0;" x1="2982.23" x2="2982.23" y1="600.785" y2="720.121"/>
  <line id="left-margin-Black-S" style="fill:none;stroke:#00AEEF;stroke-width:0.5;opacity:1.0;" x1="2884.57" x2="2884.57" y1="600.785" y2="720.121"/>
  <line id="right-margin-Regular-S" style="fill:none;stroke:#00AEEF;stroke-width:0.5;opacity:1.0;" x1="1496.11" x2="1496.11" y1="600.785" y2="720.121"/>
  <line id="left-margin-Regular-S" style="fill:none;stroke:#00AEEF;stroke-width:0.5;opacity:1.0;" x1="1403.58" x2="1403.58" y1="600.785" y2="720.121"/>
  <line id="right-margin-Ultralight-S" style="fill:none;stroke:#00AEEF;stroke-width:0.5;opacity:1.0;" x1="603.773" x2="603.773" y1="600.785" y2="720.121"/>
  <line id="left-margin-Ultralight-S" style="fill:none;stroke:#00AEEF;stroke-width:0.5;opacity:1.0;" x1="515.649" x2="515.649" y1="600.785" y2="720.121"/>
 </g>
 <g id="Symbols">
  <g id="Black-S" transform="matrix(1 0 0 1 2884.57 696)">
   <path class="monochrome-0 multicolor-0:tintColor hierarchical-0:primary SFSymbolsPreviewWireframe" d="M81.0489-44.8064L81.0489-44.8061C80.2388-44.0155 79.119-42.1327 78.0889-39.6747L78.0889-39.6745C77.639-38.5843 77.2789-37.5754 77.0289-36.8377L77.0289-36.8378C76.909-36.4744 76.8189-36.1903 76.7589-36.0089L76.7589-36.0088C76.7488-35.9749 76.7488-35.9481 76.7388-35.9208C76.7288-35.8813 76.7088-35.833 76.699-35.7779L76.5689-35.3159L76.4988-35.1873C75.399-32.246 72.5589-30.3777 69.5089-30.3777L69.5089-30.3777C66.649-30.3787 63.9988-32.0005 62.7488-34.6177L62.659-34.8136L62.5889-35.0167L62.449-35.365L62.119-36.2462L62.119-36.4179C62.0789-36.5432 62.0389-36.6818 61.9788-36.8387L61.9788-36.8388C61.7388-37.5767 61.379-38.585 60.919-39.6745L60.919-39.6747C59.889-42.1335 58.7789-44.0157 57.9588-44.8059L57.9588-44.8062C57.129-45.6095 55.159-46.7088 52.6089-47.715L52.6089-47.7152C51.4688-48.1626 50.429-48.5142 49.659-48.7542L49.659-48.7543C49.2889-48.8703 48.9988-48.9574 48.7989-49.015L48.7989-49.015C48.7388-49.0309 48.689-49.045 48.649-49.0561C48.619-49.0638 48.5889-49.073 48.5489-49.0837L48.399-49.1228L48.3189-49.1512C45.2689-50.0703 43.0289-52.8707 43.0189-56.222L43.0189-56.2251C43.0189-59.5681 45.2589-62.383 48.3189-63.3048L48.399-63.3324L48.5489-63.3716C48.5889-63.3824 48.619-63.3916 48.649-63.3993C48.689-63.4104 48.7388-63.4244 48.7989-63.4403L48.7989-63.4402C49.0589-63.5164 49.3189-63.5886 49.659-63.696L49.659-63.696C50.409-63.9313 51.4588-64.288 52.6089-64.7402L52.6089-64.7401C55.169-65.7484 57.129-66.843 57.9588-67.6441L57.9588-67.6442C58.7789-68.4336 59.889-70.3177 60.919-72.7809L60.919-72.7809C60.9988-72.9672 61.0689-73.1497 61.149-73.3301C55.919-75.5671 50.0689-77.0738 44.389-76.8875C37.139-76.8358 29.2288-71.2155 22.5789-62.5995C15.379-54.7226 6.21881-41.4412 6.86896-33.6976C6.86896-14.9881 24.649 6.65564 48.419 5.78352C53.5489 5.45578 67.399 6.00117 76.9988-4.35955C80.0489-8.36487 84.2288-16.9545 87.169-27.2734C87.369-27.9914 87.5088-28.7291 87.5789-29.4725C88.2188-36.5379 87.669-42.3883 86.0289-47.5636C83.659-46.5983 81.8389-45.5683 81.0489-44.8064Z"/>
   <path class="monochrome-1 multicolor-1:tintColor hierarchical-1:secondary SFSymbolsPreviewWireframe" d="M89.139-58.3757L89.119-58.3807C89.1089-58.3843 89.0789-58.3882 89.0489-58.3959C88.9988-58.4119 88.909-58.4391 88.7889-58.4716C88.5589-58.538 88.2188-58.6329 87.7989-58.7644C86.9588-59.03 85.7889-59.4273 84.5189-59.9306C81.869-60.9724 79.0689-62.3701 77.449-63.9339C75.8389-65.4979 74.399-68.2195 73.3189-70.7846C72.8089-72.0237 72.399-73.1553 72.129-73.9751C71.9888-74.3827 71.889-74.7154 71.8189-74.9393C71.7889-75.0498 71.7589-75.1361 71.7388-75.1917C71.7388-75.2182 71.7288-75.2395 71.7288-75.2523L71.7188-75.2674C71.449-76.235 70.5389-76.9031 69.5089-76.9031C68.4688-76.9028 67.5589-76.2349 67.2889-75.2674L67.2889-75.2523C67.2889-75.2397 67.2789-75.2182 67.2789-75.1917C67.2589-75.136 67.2288-75.05 67.199-74.9393C67.129-74.7154 67.0189-74.3827 66.889-73.9751C66.6089-73.1552 66.2088-72.0237 65.689-70.7846C64.619-68.2195 63.169-65.4979 61.5589-63.9339C59.949-62.3706 57.149-60.9722 54.4988-59.9306C53.2188-59.4267 52.0589-59.0302 51.2088-58.7644C50.7889-58.6327 50.449-58.5379 50.2188-58.4716C50.1089-58.4387 50.0189-58.4118 49.9588-58.3959C49.929-58.3882 49.909-58.3843 49.889-58.3807L49.879-58.3757C48.879-58.1101 48.189-57.2277 48.189-56.2251C48.189-55.2232 48.879-54.3452 49.879-54.0796L49.889-54.0745C49.909-54.071 49.929-54.0671 49.9588-54.0594C50.0189-54.0435 50.1089-54.0166 50.2188-53.9837C50.449-53.9173 50.7889-53.8176 51.2088-53.6858C52.0589-53.42 53.2288-53.0285 54.4988-52.5247C57.149-51.483 59.949-50.0804 61.5589-48.5163C63.169-46.9528 64.619-44.2352 65.689-41.6707C66.2088-40.4301 66.6089-39.2953 66.889-38.4751C67.0189-38.0677 67.129-37.7397 67.199-37.516C67.2288-37.405 67.2589-37.3196 67.2789-37.2635C67.2789-37.2364 67.2889-37.2109 67.2889-37.1979L67.2889-37.1878L67.419-36.8395C67.7889-36.0619 68.5989-35.5474 69.5089-35.5471C70.5389-35.5471 71.449-36.22 71.7188-37.1878L71.7288-37.1979C71.7288-37.2109 71.7388-37.2364 71.7388-37.2635C71.7589-37.3196 71.7889-37.4056 71.8189-37.516C71.889-37.7396 71.9888-38.0676 72.129-38.4751C72.399-39.2953 72.7989-40.4301 73.3189-41.6707C74.399-44.235 75.8389-46.9525 77.449-48.5163C79.0689-50.0805 81.869-51.483 84.5189-52.5247C85.7889-53.0278 86.9588-53.4202 87.7989-53.6858C88.2188-53.8174 88.5589-53.9173 88.7889-53.9837C88.909-54.0164 88.9988-54.0434 89.0489-54.0594C89.0789-54.0671 89.1089-54.071 89.119-54.0745L89.139-54.0796L89.4888-54.2058C90.2889-54.565 90.8189-55.3476 90.8189-56.2251C90.8189-57.2282 90.129-58.1106 89.139-58.3757Z"/>
  </g>
  <g id="Regular-S" transform="matrix(1 0 0 1 1403.58 696)">
   <path class="monochrome-0 multicolor-0:tintColor hierarchical-0:primary SFSymbolsPreviewWireframe" d="M76.5219-43.948L76.5214-43.9478C75.7565-43.2054 74.7076-41.4376 73.7412-39.1296L73.7416-39.1295C73.313-38.1058 72.9756-37.1585 72.7446-36.4658L72.7444-36.4659C72.6307-36.1246 72.5467-35.8579 72.4943-35.6876L72.4946-35.6875C72.4848-35.6557 72.4772-35.6305 72.4695-35.6048C72.4602-35.5677 72.4478-35.5224 72.4334-35.4707L72.3092-35.0369L72.2489-34.9161C71.2118-32.1544 68.5481-30.4001 65.6802-30.4001L65.6787-30.4001C62.9984-30.4011 60.5098-31.9239 59.34-34.3813L59.2526-34.5653L59.1808-34.7559L59.0575-35.083L58.7454-35.9104L58.7454-36.0716C58.7074-36.1893 58.665-36.3194 58.6158-36.4668L58.6158-36.4668C58.3843-37.1597 58.0476-38.1064 57.6193-39.1295L57.6195-39.1296C56.6527-41.4383 55.6043-43.2056 54.8394-43.9476L54.8394-43.9478C54.0618-44.7021 52.211-45.7343 49.8132-46.6791L49.8127-46.6793C48.7468-47.0994 47.7633-47.4295 47.0464-47.6549L47.0464-47.6549C46.6996-47.7639 46.4211-47.8456 46.2329-47.8997L46.2329-47.8997C46.181-47.9147 46.1357-47.9279 46.1-47.9383C46.0708-47.9455 46.0371-47.9541 45.9999-47.9642L45.8635-48.001L45.7838-48.0276C42.9203-48.8906 40.8154-51.52 40.8135-54.6668L40.8135-54.6697C40.8135-57.8086 42.9097-60.4516 45.7858-61.3172L45.8635-61.3431L45.9999-61.3799C46.0373-61.39 46.071-61.3986 46.1003-61.4059C46.1361-61.4164 46.1812-61.4295 46.2329-61.4444L46.2329-61.4443C46.482-61.5159 46.7258-61.5837 47.0464-61.6845L47.0464-61.6845C47.7493-61.9055 48.7356-62.2404 49.8132-62.665L49.8132-62.6649C52.215-63.6116 54.0634-64.6394 54.8395-65.3916L54.8394-65.3917C55.6034-66.1329 56.6509-67.902 57.6193-70.2148L57.6193-70.2148C57.6926-70.3897 57.7621-70.5611 57.8299-70.7304C52.9197-72.8309 47.4326-74.2457 42.0945-74.0707C35.2854-74.0221 27.8603-68.7449 21.6138-60.6549C14.8528-53.2589 6.25259-40.7882 6.8671-33.5174C6.8671-15.95 23.5593 4.37246 45.8839 3.55358C50.6966 3.24585 63.7022 3.75794 72.714-5.97029C75.5841-9.73111 79.5066-17.7964 82.2626-27.4853C82.4539-28.1595 82.5854-28.8522 82.6485-29.5502C83.2502-36.1843 82.7333-41.6775 81.1982-46.5369C78.9694-45.6306 77.2589-44.6634 76.5219-43.948Z"/>
   <path class="monochrome-1 multicolor-1:tintColor hierarchical-1:secondary SFSymbolsPreviewWireframe" d="M84.11-56.689L84.096-56.6937C84.0833-56.697 84.0605-56.7007 84.0343-56.7079C83.9799-56.723 83.8945-56.7485 83.7877-56.779C83.5712-56.8414 83.2518-56.9305 82.8587-57.054C82.0656-57.3033 80.9725-57.6764 79.773-58.149C77.2903-59.1272 74.6551-60.4395 73.1416-61.9079C71.6277-63.3764 70.272-65.9319 69.2638-68.3403C68.777-69.5038 68.3974-70.5664 68.1406-71.3361C68.0125-71.7188 67.9154-72.0312 67.8513-72.2415C67.8198-72.3452 67.7955-72.4263 67.7805-72.4785C67.7732-72.5033 67.7693-72.5233 67.7659-72.5354L67.7615-72.5495C67.5048-73.4581 66.6514-74.0854 65.6802-74.0854C64.7094-74.0851 63.8556-73.458 63.5993-72.5495L63.5993-72.5354C63.5959-72.5235 63.5925-72.5034 63.5852-72.4785C63.5697-72.4262 63.541-72.3454 63.5095-72.2415C63.4454-72.0312 63.3478-71.7188 63.2202-71.3361C62.9629-70.5663 62.5838-69.5038 62.097-68.3403C61.0883-65.9319 59.7331-63.3764 58.2192-61.9079C56.7057-60.44 54.0744-59.1269 51.5926-58.149C50.3918-57.6758 49.2957-57.3035 48.5021-57.054C48.1085-56.9303 47.7896-56.8413 47.5731-56.779C47.4653-56.7482 47.3809-56.7229 47.3265-56.7079C47.3003-56.7007 47.277-56.697 47.2649-56.6937L47.2508-56.689C46.3149-56.4396 45.6674-55.6111 45.6674-54.6697C45.6679-53.729 46.3159-52.9045 47.2508-52.6551L47.2649-52.6504C47.277-52.647 47.3003-52.6434 47.3265-52.6362C47.3809-52.6212 47.4653-52.596 47.5731-52.5651C47.7896-52.5027 48.108-52.4092 48.5021-52.2854C49.2957-52.0358 50.3922-51.6682 51.5926-51.1951C54.0749-50.2171 56.7057-48.9001 58.2192-47.4315C59.7326-45.9634 61.0883-43.4117 62.097-41.0038C62.5843-39.8389 62.9629-38.7734 63.2202-38.0033C63.3478-37.6207 63.4454-37.3127 63.5095-37.1026C63.541-36.9985 63.5697-36.9183 63.5852-36.8656C63.5925-36.8402 63.5959-36.8162 63.5993-36.804L63.5993-36.7945L63.7226-36.4674C64.0701-35.7373 64.8302-35.2542 65.6802-35.254C66.6514-35.254 67.5048-35.8858 67.7615-36.7945L67.7659-36.804C67.7693-36.8162 67.7727-36.8402 67.7805-36.8656C67.7955-36.9183 67.8198-36.999 67.8513-37.1026C67.9154-37.3127 68.013-37.6206 68.1406-38.0033C68.3979-38.7734 68.7765-39.8389 69.2638-41.0038C70.272-43.4115 71.6282-45.9632 73.1416-47.4315C74.6551-48.9001 77.2903-50.2171 79.773-51.1951C80.9715-51.6675 82.0656-52.036 82.8587-52.2854C83.2523-52.409 83.5712-52.5027 83.7877-52.5651C83.895-52.5958 83.9799-52.6212 84.0343-52.6362C84.0605-52.6434 84.0833-52.647 84.096-52.6504L84.11-52.6551L84.4469-52.7736C85.1983-53.1109 85.6929-53.8457 85.6934-54.6697C85.6934-55.6115 85.0464-56.44 84.11-56.689Z"/>
  </g>
  <g id="Ultralight-S" transform="matrix(1 0 0 1 515.649 696)">
   <path class="monochrome-0 multicolor-0:tintColor hierarchical-0:primary SFSymbolsPreviewWireframe" d="M72.7111-43.7983L72.7111-43.7981C71.9911-43.0958 71.0012-41.4234 70.081-39.2399L70.081-39.2398C69.6811-38.2713 69.361-37.3751 69.1411-36.7198L69.1411-36.7199C69.0312-36.3971 68.9511-36.1447 68.9011-35.9836L68.9011-35.9835C68.8911-35.9534 68.8911-35.9296 68.881-35.9053C68.871-35.8702 68.861-35.8273 68.841-35.7784L68.7311-35.368L68.6711-35.2537C67.6911-32.6411 65.1711-30.9814 62.4611-30.9814L62.4511-30.9814C59.9211-30.9823 57.561-32.423 56.4611-34.7478L56.371-34.9218L56.311-35.1022L56.1911-35.4116L55.8911-36.1943L55.8911-36.3469C55.861-36.4582 55.821-36.5813 55.7712-36.7207L55.7712-36.7208C55.551-37.3763 55.2311-38.2719 54.831-39.2398L54.831-39.2399C53.9211-41.424 52.9211-43.096 52.2011-43.7979L52.2011-43.7982C51.4611-44.5118 49.7111-45.4883 47.4411-46.382L47.4411-46.3822C46.4411-46.7797 45.5112-47.0919 44.831-47.3052L44.831-47.3052C44.5012-47.4083 44.2411-47.4857 44.061-47.5368L44.061-47.5368C44.0112-47.551 43.9711-47.5635 43.9311-47.5733C43.9011-47.5802 43.871-47.5883 43.841-47.5979L43.7111-47.6326L43.631-47.6578C40.9211-48.4743 38.9311-50.9618 38.9311-53.9388L38.9311-53.9415C38.9311-56.911 40.9111-59.4115 43.631-60.2304L43.7111-60.2549L43.841-60.2897C43.871-60.2993 43.9011-60.3074 43.9311-60.3143C43.9711-60.3242 44.0112-60.3366 44.061-60.3507L44.061-60.3506C44.2912-60.4183 44.5212-60.4825 44.831-60.5778L44.831-60.5779C45.4911-60.7869 46.4311-61.1037 47.4411-61.5054L47.4411-61.5053C49.7211-62.401 51.4711-63.3733 52.2011-64.085L52.2011-64.085C52.9211-64.7862 53.9111-66.4599 54.831-68.6479L54.831-68.6479C54.9011-68.8134 54.9611-68.9755 55.0312-69.1357C50.381-71.1229 45.1911-72.4613 40.1411-72.2958C33.7011-72.2498 26.6811-67.2574 20.7712-59.6038C14.371-52.6069 6.23114-40.809 6.82098-33.9305C6.82098-17.3109 22.611 1.91503 43.7311 1.14033C48.2812 0.849198 60.581 1.33367 69.111-7.86969C71.831-11.4276 75.5412-19.0577 78.1411-28.2239C78.321-28.8617 78.4511-29.517 78.5112-30.1773C79.081-36.4535 78.591-41.6503 77.1411-46.2475C75.0312-45.3901 73.4111-44.4751 72.7111-43.7983Z"/>
   <path class="monochrome-1 multicolor-1:tintColor hierarchical-1:secondary SFSymbolsPreviewWireframe" d="M79.8911-55.8519L79.881-55.8564C79.871-55.8595 79.841-55.863 79.821-55.8698C79.7712-55.884 79.6911-55.9082 79.591-55.9371C79.381-55.996 79.081-56.0803 78.7111-56.1972C77.9611-56.4331 76.9211-56.786 75.7912-57.2331C73.4411-58.1585 70.9511-59.4 69.5112-60.7892C68.081-62.1785 66.801-64.5961 65.851-66.8746C65.3911-67.9753 65.0312-68.9805 64.7812-69.7087C64.6611-70.0708 64.571-70.3663 64.5112-70.5652C64.4811-70.6634 64.4611-70.74 64.4411-70.7894C64.4411-70.8129 64.4311-70.8318 64.4311-70.8433L64.4211-70.8567C64.1811-71.7162 63.371-72.3096 62.4611-72.3096C61.5412-72.3094 60.7311-71.7161 60.4911-70.8567L60.4911-70.8433C60.4811-70.8321 60.4811-70.813 60.4711-70.7894C60.4611-70.74 60.4311-70.6635 60.4011-70.5652C60.341-70.3663 60.2512-70.0708 60.131-69.7087C59.881-68.9804 59.5312-67.9753 59.071-66.8746C58.111-64.5961 56.831-62.1785 55.4011-60.7892C53.9711-59.4005 51.4811-58.1583 49.131-57.2331C47.9911-56.7855 46.9611-56.4332 46.2011-56.1972C45.831-56.0801 45.5312-55.996 45.331-55.9371C45.2211-55.9079 45.1411-55.884 45.091-55.8698C45.071-55.863 45.051-55.8595 45.0312-55.8564L45.0212-55.8519C44.1411-55.6159 43.5212-54.8321 43.5212-53.9415C43.5212-53.0516 44.1411-52.2716 45.0212-52.0356L45.0312-52.0312C45.051-52.028 45.071-52.0245 45.091-52.0177C45.1411-52.0036 45.2211-51.9797 45.331-51.9505C45.5312-51.8915 45.831-51.803 46.2011-51.6858C46.9611-51.4498 47.9911-51.102 49.131-50.6544C51.4811-49.7291 53.9711-48.4832 55.4011-47.0938C56.831-45.705 58.111-43.291 59.071-41.0129C59.5312-39.911 59.881-38.9029 60.131-38.1743C60.2512-37.8124 60.341-37.521 60.4011-37.3223C60.4311-37.2238 60.4611-37.1479 60.4711-37.0981C60.4811-37.074 60.4811-37.0513 60.4911-37.0398L60.4911-37.0308L60.601-36.7214C60.9311-36.0307 61.6511-35.5736 62.4611-35.5734C63.371-35.5734 64.1811-36.1711 64.4211-37.0308L64.4311-37.0398C64.4311-37.0513 64.4411-37.074 64.4411-37.0981C64.4611-37.1479 64.4811-37.2243 64.5112-37.3223C64.571-37.521 64.6611-37.8123 64.7812-38.1743C65.0312-38.9029 65.381-39.911 65.851-41.0129C66.801-43.2907 68.081-45.7048 69.5112-47.0938C70.9511-48.4833 73.4411-49.7291 75.7912-50.6544C76.9211-51.1013 77.9611-51.45 78.7111-51.6858C79.081-51.8028 79.381-51.8915 79.591-51.9505C79.6911-51.9795 79.7712-52.0035 79.821-52.0177C79.841-52.0245 79.871-52.028 79.881-52.0312L79.8911-52.0356L80.2111-52.1478C80.9211-52.4669 81.3911-53.162 81.3911-53.9415C81.3911-54.8325 80.7812-55.6164 79.8911-55.8519Z"/>
  </g>
 </g>
</svg>
