<svg width="275" height="16" viewBox="0 0 275 16" fill="none" xmlns="http://www.w3.org/2000/svg">
<path d="M0 0.264026H4.34438V3.18944H0V0.264026ZM0 4.53069H4.34438V15.7465H0V4.53069ZM6.83452 4.53069H10.88V6.35776C11.4849 5.61144 12.0969 5.07811 12.716 4.75776C13.3351 4.4374 14.0894 4.27723 14.9789 4.27723C16.1815 4.27723 17.1226 4.63102 17.8022 5.33861C18.4818 6.04621 18.8216 7.13927 18.8216 8.61782V15.7465H14.4559V9.57888C14.4559 8.8748 14.3242 8.37668 14.0609 8.08449C13.7976 7.7923 13.4276 7.6462 12.9508 7.6462C12.4242 7.6462 11.9973 7.84334 11.6699 8.23762C11.3426 8.63191 11.1789 9.33949 11.1789 10.3604V15.7465H6.83452V4.53069ZM25.9657 4.53069H28.0365V7.67789H25.9657V15.7465H21.6106V7.67789H19.9881V4.53069H21.6106V4.02376C21.6106 3.56611 21.6604 3.06271 21.7601 2.51353C21.8597 1.96435 22.0465 1.51551 22.3204 1.167C22.5944 0.81848 22.9787 0.536855 23.4733 0.322112C23.9678 0.10737 24.6919 0 25.6454 0L26.0214 0.0062491C26.7555 0.0291625 27.7368 0.115088 28.9651 0.264026L28.4848 2.86205C27.9653 2.77756 27.5454 2.73531 27.2252 2.73531C26.8338 2.73531 26.5527 2.80044 26.382 2.93069C26.2112 3.06095 26.0902 3.26689 26.019 3.54851C25.9835 3.70341 25.9657 4.0308 25.9657 4.53069ZM28.4451 10.1703C28.4451 8.4594 29.0286 7.04951 30.1957 5.94059C31.3627 4.83168 32.9389 4.27723 34.9243 4.27723C37.1944 4.27723 38.9094 4.92849 40.0693 6.23102C41.0015 7.28009 41.4676 8.57205 41.4676 10.1069C41.4676 11.8319 40.8894 13.2453 39.7331 14.3472C38.5767 15.4491 36.9774 16 34.935 16C33.1133 16 31.6403 15.5424 30.5159 14.6271C29.1354 13.4935 28.4451 12.0079 28.4451 10.1703ZM32.8002 10.1597C32.8002 11.1595 33.0048 11.8988 33.414 12.3776C33.8231 12.8563 34.3373 13.0957 34.9564 13.0957C35.5826 13.0957 36.0967 12.8598 36.4988 12.3881C36.9008 11.9164 37.1019 11.1595 37.1019 10.1175C37.1019 9.14587 36.8991 8.42244 36.4935 7.94719C36.0878 7.47194 35.5861 7.23432 34.9884 7.23432C34.3551 7.23432 33.832 7.47546 33.4193 7.95776C33.0066 8.44005 32.8002 9.17403 32.8002 10.1597ZM43.3066 4.53069H47.3628V6.16766C47.9463 5.4847 48.5352 4.9989 49.1294 4.71023C49.7236 4.42156 50.4405 4.27723 51.2802 4.27723C52.184 4.27723 52.8991 4.43564 53.4257 4.75248C53.9523 5.06931 54.3828 5.54103 54.7173 6.16766C55.4004 5.43542 56.0231 4.93729 56.5853 4.67327C57.1474 4.40924 57.8413 4.27723 58.6667 4.27723C59.8836 4.27723 60.8336 4.63454 61.5167 5.34917C62.1999 6.06381 62.5414 7.18151 62.5414 8.70231V15.7465H58.1864V9.3571C58.1864 8.85016 58.0868 8.47349 57.8875 8.22706C57.5957 7.83982 57.2328 7.6462 56.7988 7.6462C56.2864 7.6462 55.8737 7.82926 55.5606 8.19538C55.2474 8.5615 55.0909 9.14939 55.0909 9.95908V15.7465H50.7358V9.56832C50.7358 9.07547 50.7074 8.74104 50.6504 8.56502C50.5579 8.28339 50.3978 8.05633 50.1701 7.88383C49.9424 7.71133 49.6755 7.62508 49.3695 7.62508C48.8714 7.62508 48.4622 7.81166 48.142 8.18482C47.8218 8.55798 47.6617 9.17051 47.6617 10.0224V15.7465H43.3066V4.53069ZM68.8102 8.1637L64.658 7.73069C64.8145 7.01254 65.0405 6.44753 65.3358 6.03564C65.6311 5.62376 66.0563 5.26645 66.6114 4.9637C67.0099 4.74543 67.5578 4.57646 68.2552 4.45677C68.9526 4.33707 69.7069 4.27723 70.5181 4.27723C71.8204 4.27723 72.8664 4.34939 73.6563 4.49373C74.4462 4.63806 75.1044 4.93905 75.631 5.3967C76.0011 5.71353 76.2928 6.16237 76.5063 6.74323C76.7198 7.3241 76.8265 7.87855 76.8265 8.4066V13.3597C76.8265 13.8878 76.8603 14.3014 76.9279 14.6007C76.9955 14.8999 77.1432 15.2818 77.3709 15.7465H73.2934C73.1297 15.4579 73.023 15.2378 72.9732 15.0865C72.9233 14.9351 72.8735 14.6975 72.8237 14.3736C72.2544 14.9157 71.6887 15.303 71.1265 15.5353C70.358 15.8451 69.4649 16 68.4473 16C67.0953 16 66.0688 15.6902 65.3678 15.0706C64.6669 14.451 64.3164 13.6871 64.3164 12.7789C64.3164 11.9269 64.569 11.2264 65.0743 10.6772C65.5434 10.1673 66.3807 9.77875 67.5862 9.51163L69.8857 9.03894C70.414 8.92541 70.7992 8.83608 71.0411 8.77096C71.525 8.6407 72.0374 8.46997 72.5782 8.25875C72.5782 7.73069 72.4679 7.36106 72.2473 7.14984C72.0267 6.93861 71.6389 6.833 71.0838 6.833C70.3722 6.833 69.8385 6.94565 69.4827 7.17096C69.2052 7.34698 68.981 7.67789 68.8102 8.1637ZM72.5782 10.4238C72.1299 10.5822 71.6676 10.7267 71.1912 10.8574L70.7102 10.9835C69.8278 11.2158 69.2692 11.4447 69.0344 11.67C68.7924 11.9023 68.6715 12.1663 68.6715 12.462C68.6715 12.8 68.7907 13.0763 69.0291 13.2911C69.2674 13.5058 69.6179 13.6132 70.0805 13.6132C70.5644 13.6132 71.0145 13.497 71.4307 13.2647C71.847 13.0323 72.1423 12.749 72.3167 12.4145C72.491 12.0801 72.5782 11.6453 72.5782 11.1102V10.4238ZM79.1459 4.53069H83.1914V6.35776C83.7963 5.61144 84.4082 5.07811 85.0273 4.75776C85.6464 4.4374 86.4007 4.27723 87.2903 4.27723C88.4929 4.27723 89.434 4.63102 90.1136 5.33861C90.7932 6.04621 91.133 7.13927 91.133 8.61782V15.7465H86.7672V9.57888C86.7672 8.8748 86.6356 8.37668 86.3723 8.08449C86.109 7.7923 85.739 7.6462 85.2622 7.6462C84.7356 7.6462 84.3086 7.84334 83.9813 8.23762C83.6539 8.63191 83.4903 9.33949 83.4903 10.3604V15.7465H79.1459V4.53069ZM93.6018 0.264026H97.9461V3.18944H93.6018V0.264026ZM93.6018 4.53069H97.9461V15.7465H93.6018V4.53069ZM104.396 8.1637L100.244 7.73069C100.401 7.01254 100.627 6.44753 100.922 6.03564C101.217 5.62376 101.642 5.26645 102.198 4.9637C102.596 4.74543 103.144 4.57646 103.841 4.45677C104.539 4.33707 105.293 4.27723 106.104 4.27723C107.407 4.27723 108.453 4.34939 109.242 4.49373C110.032 4.63806 110.691 4.93905 111.217 5.3967C111.587 5.71353 111.879 6.16237 112.092 6.74323C112.306 7.3241 112.413 7.87855 112.413 8.4066V13.3597C112.413 13.8878 112.446 14.3014 112.514 14.6007C112.582 14.8999 112.729 15.2818 112.957 15.7465H108.88L108.735 15.4807C108.651 15.3188 108.593 15.1874 108.559 15.0865C108.509 14.9351 108.46 14.6975 108.41 14.3736C107.841 14.9157 107.275 15.303 106.713 15.5353C105.944 15.8451 105.051 16 104.033 16C102.681 16 101.655 15.6902 100.954 15.0706C100.253 14.451 99.9026 13.6871 99.9026 12.7789C99.9026 11.9269 100.155 11.2264 100.66 10.6772C101.13 10.1673 101.967 9.77875 103.172 9.51163L105.472 9.03894C106 8.92541 106.385 8.83608 106.627 8.77096C107.111 8.6407 107.624 8.46997 108.164 8.25875C108.164 7.73069 108.054 7.36106 107.833 7.14984C107.613 6.93861 107.225 6.833 106.67 6.833C105.958 6.833 105.425 6.94565 105.069 7.17096C104.791 7.34698 104.567 7.67789 104.396 8.1637ZM108.164 10.4238C107.716 10.5822 107.254 10.7267 106.777 10.8574L106.296 10.9835C105.414 11.2158 104.855 11.4447 104.621 11.67C104.379 11.9023 104.258 12.1663 104.258 12.462C104.258 12.8 104.377 13.0763 104.615 13.2911C104.854 13.5058 105.204 13.6132 105.667 13.6132C106.151 13.6132 106.601 13.497 107.017 13.2647C107.433 13.0323 107.728 12.749 107.903 12.4145C108.077 12.0801 108.164 11.6453 108.164 11.1102V10.4238ZM114.732 0.264026H119.172V8.24818L122.417 4.53069H127.765L123.698 8.45941L128 15.7465H123.101L120.806 11.2475L119.172 12.8317V15.7465H114.732V0.264026Z" fill="white"/>
<path d="M139.765 5.61385H136V4.20772H145.156V5.61385H141.392V15.7923H139.765V5.61385Z" fill="white"/>
<path d="M147.448 8.49001C147.943 7.6751 148.772 7.05193 150.224 7.05193C152.297 7.05193 153.047 8.39414 153.047 10.3595V15.7923H151.595V10.7909C151.595 9.46471 151.372 8.31425 149.713 8.31425C148.309 8.31425 147.448 9.28895 147.448 11.1265V15.7923H145.997V4.20772H147.448V8.49001Z" fill="white"/>
<path d="M156.191 11.9734C156.255 13.8269 157.563 14.7217 158.839 14.7217C160.116 14.7217 160.817 14.1465 161.184 13.2996H162.684C162.285 14.7856 160.929 16 158.839 16C156.128 16 154.628 14.0506 154.628 11.51C154.628 8.79361 156.447 7.05193 158.792 7.05193C161.408 7.05193 162.987 9.25699 162.795 11.9734H156.191ZM156.207 10.727H161.264C161.232 9.51265 160.323 8.29827 158.792 8.29827C157.499 8.29827 156.335 9.00133 156.207 10.727Z" fill="white"/>
<path d="M168.496 4.20772H176.344V5.61385H170.123V9.12916H175.977V10.5353H170.123V14.3862H176.344V15.7923H168.496V4.20772Z" fill="white"/>
<path d="M178.626 5.03861H180.077V7.19574H181.704V8.36218H180.077V13.4594C180.077 14.3542 180.141 14.5779 180.97 14.5779H181.704V15.7923H180.651C179.008 15.7923 178.626 15.4248 178.626 13.6352V8.36218H177.27V7.19574H178.626V5.03861Z" fill="white"/>
<path d="M185.006 8.49001C185.5 7.6751 186.33 7.05193 187.781 7.05193C189.855 7.05193 190.604 8.39414 190.604 10.3595V15.7923H189.153V10.7909C189.153 9.46471 188.93 8.31425 187.271 8.31425C185.867 8.31425 185.006 9.28895 185.006 11.1265V15.7923H183.554V4.20772H185.006V8.49001Z" fill="white"/>
<path d="M194.227 4.20772V5.96538H192.776V4.20772H194.227ZM194.227 7.19574V15.7923H192.776V7.19574H194.227Z" fill="white"/>
<path d="M203.676 10.0719H202.209C202.001 9.04927 201.108 8.33023 199.992 8.33023C198.699 8.33023 197.519 9.33688 197.519 11.494C197.519 13.6831 198.715 14.7217 199.992 14.7217C201.204 14.7217 202.065 13.9068 202.273 12.996H203.772C203.485 14.6099 201.938 16 199.944 16C197.487 16 195.94 14.1305 195.94 11.51C195.94 8.9534 197.551 7.05193 200.087 7.05193C202.161 7.05193 203.485 8.61784 203.676 10.0719Z" fill="white"/>
<path d="M204.899 13.5233C204.899 11.494 207.18 10.9028 210.705 10.5033V10.2956C210.705 8.72969 209.828 8.2024 208.759 8.2024C207.563 8.2024 206.861 8.85752 206.797 9.91212H205.298C205.441 8.05859 207.068 7.01997 208.743 7.01997C211.104 7.01997 212.173 8.15446 212.157 10.5672L212.141 12.5486C212.125 13.9867 212.205 14.9774 212.364 15.7923H210.897C210.849 15.4727 210.801 15.1212 210.785 14.6099C210.258 15.4887 209.365 16 207.85 16C206.239 16 204.899 15.1052 204.899 13.5233ZM210.817 11.6538C208.185 11.9254 206.51 12.3089 206.51 13.4913C206.51 14.3063 207.132 14.8495 208.169 14.8495C209.525 14.8495 210.817 14.2264 210.817 12.1971V11.6538Z" fill="white"/>
<path d="M215.771 15.7923H214.32V4.20772H215.771V15.7923Z" fill="white"/>
<path d="M231.781 12.1012C231.27 14.6578 229.277 16 226.772 16C223.454 16 221.524 13.5073 221.524 9.97603C221.524 6.38083 223.63 4 226.9 4C229.292 4 231.223 5.4221 231.717 7.8988H230.138C229.787 6.46072 228.67 5.37417 226.82 5.37417C224.778 5.37417 223.183 6.97204 223.183 9.97603C223.183 12.9001 224.714 14.6258 226.868 14.6258C228.702 14.6258 229.835 13.5872 230.202 12.1012H231.781Z" fill="white"/>
<path d="M234.885 15.7923H233.433V4.20772H234.885V15.7923Z" fill="white"/>
<path d="M244.86 11.526C244.86 14.6418 242.738 16 240.745 16C238.751 16 236.629 14.6418 236.629 11.526C236.629 8.41012 238.751 7.05193 240.745 7.05193C242.738 7.05193 244.86 8.41012 244.86 11.526ZM240.745 14.7217C242.053 14.7217 243.313 13.731 243.313 11.526C243.313 9.24101 242.053 8.33023 240.745 8.33023C239.437 8.33023 238.176 9.1771 238.176 11.526C238.176 13.8109 239.437 14.7217 240.745 14.7217Z" fill="white"/>
<path d="M251.908 14.5619C251.414 15.3768 250.632 16 249.212 16C247.218 16 246.469 14.6578 246.469 12.6924V7.19574H247.92V12.261C247.92 13.5872 248.144 14.7377 249.723 14.7377C251.095 14.7377 251.908 13.763 251.908 11.9254V7.19574H253.36V15.7923H251.908V14.5619Z" fill="white"/>
<path d="M261.548 4.20772H263V15.7923H261.548V14.498C261.022 15.4088 260.113 16 258.741 16C256.779 16 255.072 14.3702 255.072 11.526C255.072 8.69774 256.779 7.05193 258.741 7.05193C260.113 7.05193 261.022 7.64314 261.548 8.55393V4.20772ZM259.108 8.29827C257.624 8.29827 256.651 9.48069 256.651 11.526C256.651 13.5712 257.624 14.7537 259.108 14.7537C260.4 14.7537 261.612 13.7949 261.612 11.526C261.612 9.25699 260.4 8.29827 259.108 8.29827Z" fill="white"/>
<rect x="267" width="8" height="8" fill="#D52B1E"/>
<path d="M271.8 3.19971H273.4V4.80029H271.8V6.3999H270.2V4.80029H268.6V3.19971H270.2V1.6001H271.8V3.19971Z" fill="white"/>
</svg>
