<svg width="24" height="24" viewBox="0 0 24 24" fill="none" xmlns="http://www.w3.org/2000/svg">
<g clip-path="url(#clip0_137_8804)">
<path d="M13.9023 21.5625C14.3085 21.4818 14.7034 21.7462 14.7842 22.1523C14.8647 22.5585 14.6005 22.9534 14.1943 23.0342C13.4769 23.1769 12.7422 23.25 12 23.25C11.2578 23.25 10.5231 23.1769 9.80566 23.0342C9.39954 22.9534 9.13526 22.5585 9.21582 22.1523C9.29662 21.7462 9.69149 21.4818 10.0977 21.5625C10.7195 21.6862 11.3566 21.75 12 21.75C12.6434 21.75 13.2805 21.6862 13.9023 21.5625ZM2.85254 17.21C3.19695 16.9798 3.66343 17.0726 3.89355 17.417C4.24575 17.9441 4.65057 18.4396 5.10547 18.8945C5.56037 19.3494 6.05593 19.7542 6.58301 20.1064C6.92742 20.3366 7.02016 20.8031 6.79004 21.1475C6.55993 21.4916 6.09429 21.5843 5.75 21.3545C5.14164 20.948 4.56984 20.48 4.04492 19.9551C3.52 19.4302 3.05199 18.8584 2.64551 18.25C2.41571 17.9057 2.50844 17.4401 2.85254 17.21ZM20.1064 17.417C20.3366 17.0726 20.8031 16.9798 21.1475 17.21C21.4916 17.4401 21.5843 17.9057 21.3545 18.25C20.948 18.8584 20.48 19.4302 19.9551 19.9551C19.4302 20.48 18.8584 20.948 18.25 21.3545C17.9057 21.5843 17.4401 21.4916 17.21 21.1475C16.9798 20.8031 17.0726 20.3366 17.417 20.1064C17.9441 19.7542 18.4396 19.3494 18.8945 18.8945C19.3494 18.4396 19.7542 17.9441 20.1064 17.417ZM12 7.5C12.4142 7.5 12.75 7.83579 12.75 8.25V11.6895L17.2178 16.1582C17.5101 16.4512 17.5095 16.9261 17.2168 17.2188C16.9239 17.5111 16.449 17.5114 16.1562 17.2188L11.4697 12.5303C11.4377 12.4983 11.4098 12.4636 11.3848 12.4277C11.354 12.3836 11.3274 12.3365 11.3066 12.2861C11.286 12.2361 11.2711 12.1844 11.2617 12.1318C11.2541 12.089 11.25 12.045 11.25 12V8.25C11.25 7.83579 11.5858 7.5 12 7.5ZM0.96582 9.80566C1.04661 9.39954 1.44154 9.13526 1.84766 9.21582C2.25383 9.29662 2.51816 9.69149 2.4375 10.0977C2.3138 10.7195 2.25 11.3566 2.25 12C2.25 12.6434 2.3138 13.2805 2.4375 13.9023C2.51816 14.3085 2.25383 14.7034 1.84766 14.7842C1.44154 14.8647 1.04661 14.6005 0.96582 14.1943C0.823136 13.4769 0.75 12.7422 0.75 12C0.75 11.2578 0.823136 10.5231 0.96582 9.80566ZM22.1523 9.21582C22.5585 9.13526 22.9534 9.39954 23.0342 9.80566C23.1769 10.5231 23.25 11.2578 23.25 12C23.25 12.7422 23.1769 13.4769 23.0342 14.1943C22.9534 14.6005 22.5585 14.8647 22.1523 14.7842C21.7462 14.7034 21.4818 14.3085 21.5625 13.9023C21.6862 13.2805 21.75 12.6434 21.75 12C21.75 11.3566 21.6862 10.7195 21.5625 10.0977C21.4818 9.69149 21.7462 9.29662 22.1523 9.21582ZM5.75 2.64551C6.09429 2.41571 6.55993 2.50844 6.79004 2.85254C7.02016 3.19695 6.92742 3.66343 6.58301 3.89355C6.05593 4.24575 5.56037 4.65057 5.10547 5.10547C4.65057 5.56037 4.24575 6.05593 3.89355 6.58301C3.66343 6.92742 3.19695 7.02016 2.85254 6.79004C2.50844 6.55993 2.41571 6.09429 2.64551 5.75C3.05199 5.14164 3.52 4.56984 4.04492 4.04492C4.56984 3.52 5.14164 3.05199 5.75 2.64551ZM17.21 2.85254C17.4401 2.50844 17.9057 2.41571 18.25 2.64551C18.8584 3.05199 19.4302 3.52 19.9551 4.04492C20.48 4.56984 20.948 5.14164 21.3545 5.75C21.5843 6.09429 21.4916 6.55993 21.1475 6.79004C20.8031 7.02016 20.3366 6.92742 20.1064 6.58301C19.7542 6.05593 19.3494 5.56037 18.8945 5.10547C18.4396 4.65057 17.9441 4.24575 17.417 3.89355C17.0726 3.66343 16.9798 3.19695 17.21 2.85254ZM12 0.75C12.7422 0.75 13.4769 0.823136 14.1943 0.96582C14.6005 1.04661 14.8647 1.44154 14.7842 1.84766C14.7034 2.25383 14.3085 2.51816 13.9023 2.4375C13.2805 2.3138 12.6434 2.25 12 2.25C11.3566 2.25 10.7195 2.3138 10.0977 2.4375C9.69149 2.51816 9.29662 2.25383 9.21582 1.84766C9.13526 1.44154 9.39954 1.04661 9.80566 0.96582C10.5231 0.823136 11.2578 0.75 12 0.75Z" fill="black"/>
</g>
<defs>
<clipPath id="clip0_137_8804">
<rect width="24" height="24" fill="white"/>
</clipPath>
</defs>
</svg>
