<?xml version="1.0" encoding="UTF-8" standalone="no"?>
<!DOCTYPE svg PUBLIC "-//W3C//DTD SVG 1.1//EN" "http://www.w3.org/Graphics/SVG/1.1/DTD/svg11.dtd">
<!-- Created with Vectornator (http://vectornator.io/) -->
<svg height="24.0pt" stroke-miterlimit="10" style="fill-rule:nonzero;clip-rule:evenodd;stroke-linecap:round;stroke-linejoin:round;" version="1.1" viewBox="0 0 24 24" width="24.0pt" xml:space="preserve" xmlns="http://www.w3.org/2000/svg" xmlns:xlink="http://www.w3.org/1999/xlink">
<defs/>
<g id="Sans-titre">
<path d="M15.1067 20.9102C14.604 21.3834 13.8129 21.3594 13.3398 20.8567C12.8666 20.354 12.8906 19.5629 13.3933 19.0897L19.598 13.25L1.25 13.25C0.55964 13.25 0 12.6904 0 12C0 11.3096 0.55964 10.75 1.25 10.75L19.598 10.75L13.3933 4.91026C12.8906 4.43711 12.8666 3.64602 13.3398 3.1433C13.8129 2.64058 14.604 2.61661 15.1067 3.08976L23.6067 11.0897C23.6295 11.1112 23.6514 11.1334 23.6723 11.1563C23.8778 11.3809 23.9949 11.6737 23.9998 11.9798C24 11.9865 24 11.9933 24 12C24 12.0067 24 12.0135 23.9998 12.0202C23.9943 12.3722 23.8432 12.6889 23.604 12.9128L15.1067 20.9102Z" fill="#000000" fill-rule="nonzero" opacity="1" stroke="none"/>
</g>
</svg>
